<?xml version="1.0" standalone="no"?>
<!DOCTYPE svg PUBLIC "-//W3C//DTD SVG 20010904//EN"
 "http://www.w3.org/TR/2001/REC-SVG-20010904/DTD/svg10.dtd">
<svg version="1.0" xmlns="http://www.w3.org/2000/svg"
 width="154.000000pt" height="145.000000pt" viewBox="0 0 154.000000 145.000000"
 preserveAspectRatio="xMidYMid meet">

<g transform="translate(0.000000,145.000000) scale(0.100000,-0.100000)"
fill="#000000" stroke="none">
<path d="M963 1266 c-23 -8 -56 -23 -75 -34 -18 -12 -169 -157 -334 -324 -280
-282 -303 -307 -324 -363 -46 -126 -7 -270 94 -346 59 -45 121 -64 199 -61
109 2 128 17 468 357 210 211 316 324 331 353 30 62 35 165 13 233 -26 76
-112 161 -185 183 -64 19 -129 20 -187 2z m192 -60 c89 -41 145 -125 145 -219
0 -98 -13 -121 -159 -269 -89 -92 -142 -138 -156 -138 -71 0 -248 147 -300
250 -47 93 -45 97 101 240 141 137 175 158 269 159 33 1 67 -7 100 -23z m-521
-389 c39 -82 167 -211 251 -252 33 -17 62 -31 65 -33 2 -1 -63 -70 -145 -153
-170 -170 -204 -191 -300 -192 -141 0 -245 107 -245 250 1 92 24 129 187 294
81 82 149 149 152 148 3 0 19 -28 35 -62z"/>
<path d="M368 563 c-50 -58 -61 -138 -28 -210 20 -46 30 -52 49 -29 10 11 9
21 -3 45 -24 45 -20 102 9 146 20 29 23 40 14 51 -15 18 -23 18 -41 -3z"/>
</g>
</svg>
