<?xml version="1.0" encoding="UTF-8"?>
<svg id="Layer_1" xmlns="http://www.w3.org/2000/svg" viewBox="0 0 499.12 487.11">
  <defs>
    <style>
      .cls-1 {
        fill: #526a8e;
      }

      .cls-2 {
        fill: #b6bacb;
      }

      .cls-3 {
        fill: #546b8f;
      }

      .cls-4 {
        fill: #bac0dc;
      }

      .cls-5 {
        fill: #b7bbc9;
      }

      .cls-6 {
        fill: #babecc;
      }

      .cls-7 {
        fill: #bac0dd;
      }

      .cls-8 {
        fill: #babfd9;
      }

      .cls-9 {
        fill: #556b8f;
      }

      .cls-10 {
        fill: #b8bccb;
      }

      .cls-11 {
        fill: #babecb;
      }

      .cls-12 {
        fill: #bbbfcb;
      }

      .cls-13 {
        fill: #b7bfde;
      }

      .cls-14 {
        fill: #b3b8c6;
      }

      .cls-15 {
        fill: #bbc0cd;
      }
    </style>
  </defs>
  <path class="cls-4" d="M311.29,154.06c15.39-15.58,29.44-32.71,49.85-42.45,10.3-4.92,21.07-8.55,32.38-9.18,22.79-1.26,44.49,2.68,63.65,16.22,20.71,14.64,34.52,34.12,39.63,58.98,6.91,33.6-1.67,63.12-25.54,87.94-6.11,6.35-12.58,12.36-18.88,18.53-.36.35-.73.69-1.09,1.04,0,0,.04-.04.04-.04-.35.35-.69.69-1.04,1.04,0,0,.04-.04.04-.04-.35.37-.69.74-1.04,1.11-.63.64-1.27,1.27-1.9,1.91-.69.35-1.38.69-2.07,1.04,0,0,.02-.02.02-.02-.36.66-.71,1.33-1.07,1.99-.65.65-1.31,1.31-1.96,1.96-.35.36-.69.71-1.04,1.07-.65.65-1.29,1.29-1.94,1.94-.35.34-.71.68-1.06,1.02,0,0,.02-.02.02-.02-.34.34-.68.69-1.02,1.03-.31.33-.63.65-.94.98-.68.68-1.37,1.36-2.05,2.04-2.65,2.65-5.3,5.31-7.95,7.96-.67.35-1.34.71-2,1.06,0,0,.02-.02.02-.02-.35.66-.71,1.32-1.06,1.98,0,0,.02-.02.01-.02-.67.68-1.34,1.36-2.02,2.04-.65.65-1.31,1.3-1.96,1.95-.67.36-1.34.71-2,1.07,0,0,.02-.02.02-.02-.34.34-.67.67-1.01,1.01,0,0,0-.01,0-.01-.34.34-.67.67-1.01,1.01,0,0,0,0,0,0-.34.34-.67.67-1.01,1.01,0,0,0,0,0,0-.34.34-.67.67-1.01,1.01,0,0,0-.01,0-.01-.32.44-.64.88-.97,1.32.02.23-.03.43-.15.63-.63.36-1.27.72-1.9,1.08,0,0,.02-.03.02-.03-.34.34-.68.68-1.02,1.02,0,0,.02-.02.02-.02-.34.34-.68.68-1.02,1.02,0,0,.02-.03.02-.03-.34.39-.68.78-1.02,1.16-10.3,10.4-20.51,20.9-30.97,31.14-3.51,3.44-8.07,4.29-12.99,3.2-14-3.11-25.77-10.68-36.87-19.14-29.39-22.41-55.18-48.38-75.68-79.3-6.25-9.42-11.73-19.27-12.59-31-.35-4.71,1.15-8.58,4.36-11.72,10.1-9.88,20.33-19.62,30.52-29.42.38-.35.77-.69,1.15-1.04,0,0-.04.04-.04.04.35-.35.7-.69,1.04-1.04,0,0-.04.04-.04.04.35-.35.69-.7,1.04-1.04,0,0-.04.04-.04.04.35-.35.7-.69,1.04-1.04,0,0-.04.04-.04.04.35-.35.69-.69,1.04-1.04,0,0-.04.04-.04.04.35-.37.69-.75,1.04-1.12.29-.29.58-.59.88-.88.38-.35.75-.69,1.13-1.04,0,0-.04.04-.04.04.35-.35.7-.69,1.04-1.04,0,0-.04.04-.04.04.35-.35.7-.69,1.04-1.04,0,0-.04.04-.04.04.35-.35.69-.7,1.04-1.04,0,0-.04.04-.04.04.35-.35.69-.7,1.04-1.04,0,0-.04.04-.04.04.35-.35.69-.69,1.04-1.04,0,0-.04.04-.04.04.35-.35.69-.69,1.04-1.04,0,0-.04.04-.04.04.35-.35.69-.69,1.04-1.04,0,0-.04.04-.04.04.35-.35.69-.69,1.04-1.04,0,0-.04.04-.04.04.35-.35.69-.69,1.04-1.04,0,0-.04.04-.04.04.35-.35.69-.69,1.04-1.04,0,0-.04.04-.04.04.35-.35.69-.69,1.04-1.04,0,0-.04.04-.04.04.35-.35.69-.7,1.04-1.04,0,0-.04.04-.04.04.35-.35.69-.69,1.04-1.04,0,0-.04.04-.04.04.35-.35.69-.69,1.04-1.04,0,0-.04.04-.04.04.35-.35.69-.69,1.04-1.04,0,0-.04.04-.04.04.35-.35.69-.69,1.04-1.04,0,0-.04.04-.04.04.35-.35.69-.69,1.04-1.04,0,0-.04.04-.04.04.35-.35.69-.7,1.04-1.04,0,0-.04.04-.04.04.35-.35.69-.69,1.04-1.04,0,0-.04.04-.04.04.35-.35.7-.69,1.04-1.04,0,0-.04.04-.04.04.35-.35.7-.69,1.04-1.04,0,0-.04.04-.04.04.35-.35.69-.69,1.04-1.04,0,0-.04.04-.04.04.35-.35.69-.69,1.04-1.04,0,0-.04.04-.04.04.35-.35.69-.69,1.04-1.04,0,0-.04.04-.04.04.35-.35.69-.69,1.04-1.04,0,0-.04.04-.04.04.35-.35.69-.69,1.04-1.04,0,0-.03.04-.03.04.35-.34.69-.69,1.04-1.03,0,0-.03.02-.03.02.68-.67,1.35-1.35,2.03-2.02,0,0-.02.03-.02.03.35-.34.71-.67,1.06-1.01ZM427.21,292.01s0,0,0,0c.34-.34.67-.67,1.01-1.01,0,0,0,0,0,0,.34-.34.67-.67,1.01-1.01,0,0,0,0,0,0,.34-.34.67-.67,1.01-1.01h-.01c.34-.33.67-.66,1.01-1v.02c.32-.43.64-.85.97-1.28,1.11-1.42,2.07-2.99,3.34-4.23,8.68-8.5,17.66-16.71,26.1-25.44,20-20.69,28.26-45.38,23.53-73.9-3.09-18.63-11.72-34.73-25.86-47.21-17.66-15.6-38.46-22.84-62.3-20.98-18.79,1.46-35.47,8.12-48.92,21.04-27.51,26.41-54.38,53.47-81.49,80.28-1.21,1.2-2.29,2.53-3.04,3.37,50.22,28.62,88.92,67.6,116.35,118.02,4.38-4.17,8.83-8.4,13.28-12.62l1.09-1.03s-.03.03-.03.03c.34-.34.69-.69,1.03-1.03l-.03.03c.34-.34.69-.69,1.03-1.03l-.03.03c.34-.34.69-.69,1.03-1.03,0,0-.03.03-.03.03.34-.34.69-.69,1.03-1.03l-.03.03c.34-.34.69-.69,1.03-1.03l-.03.03c.34-.34.69-.69,1.03-1.03,0,0-.03.03-.03.03.34-.34.69-.69,1.03-1.03l-.03.03c.34-.34.69-.69,1.03-1.03l-.03.03c.34-.34.69-.69,1.03-1.03l-.03.03c.34-.34.69-.69,1.03-1.03l-.03.03c.34-.34.69-.69,1.03-1.03,0,0-.03.03-.03.03.34-.34.69-.69,1.03-1.03,0,0-.03.03-.03.03.34-.34.69-.69,1.03-1.03l-.03.03c.34-.34.69-.69,1.03-1.03,0,0-.03.03-.03.03.34-.34.69-.69,1.03-1.03l-.03.03c.34-.34.69-.69,1.03-1.03l-.03.03c.34-.34.69-.69,1.03-1.03,0,0-.03.03-.03.03.35-.35.69-.7,1.04-1.05,3-2.98,6-5.96,9-8.93.65-.36,1.31-.72,1.96-1.08,0,0-.01.02-.01.02.34-.34.67-.67,1.01-1.01,0,0,0,0,0,0,.34-.34.67-.67,1.01-1.01h0c.34-.33.67-.66,1.01-1h0c.34-.33.67-.66,1.01-1ZM368.6,349.58c-1.47-4.48-2.32-8.2-3.87-11.6-6.94-15.29-16.95-28.62-28.17-40.88-11.43-12.49-23.2-24.84-36.04-35.82-11.28-9.64-24.11-17.5-36.55-25.71-3.36-2.22-7.78-2.85-12.92-4.62.49,3.39.31,5.32,1.06,6.78,4.32,8.38,8.18,17.12,13.46,24.87,13.81,20.27,30.23,38.41,49.02,54.17,11.15,9.36,23.04,17.9,34.99,26.24,5.15,3.59,11.04,6.57,19.01,6.57Z"/>
  <path class="cls-1" d="M126.43,221.29c22.99-35.14,52.01-64.41,86.53-88.2,7.2-4.96,15.16-8.82,23.27-13.47-1.02-1.17-2.1-2.53-3.31-3.76-14.03-14.23-28.09-28.45-42.14-42.67-1.05-1.07-2.22-2.05-3.1-3.25-2.23-3.03-2.57-6.2.34-8.97,2.83-2.69,5.91-2.11,8.47.37,5.98,5.8,11.81,11.75,17.67,17.67,13.58,13.74,26.98,27.67,40.79,41.19,6.11,5.99,6.8,12.57,4.39,20.09-4.28,13.38-12.05,24.81-20.54,35.74-21.82,28.08-46.91,52.81-76.87,72.13-8.11,5.23-17.46,8.75-26.58,12.16-6.03,2.25-11.52-.06-16.22-4.84-30-30.54-60.36-60.73-90.2-91.42C2.16,136.52-6.57,103.59,4.99,67,16.15,31.67,41.09,9.72,77.54,2.1c29.72-6.21,56.33,1.57,79.95,20.28,3.33,2.64,4.59,5.77,2.11,9.53-2.06,3.11-6.43,3.14-10.1.05-14.84-12.48-32.08-18.61-51.29-19.45-2.94-.13-5.91.56-8.86.87-9.28-.81-17.76,2.33-25.99,5.83C31.38,32.82,12.38,62.86,12.58,96.8c.14,23.51,9.68,43.5,26.29,60.17,25.28,25.37,50.48,50.82,75.72,76.23,1.32,1.33,2.74,2.58,4.2,3.95,2.76-5.71,5.2-10.78,7.65-15.85ZM249.11,132.78c-.38-.54-.76-1.08-1.14-1.62-1.69.16-3.51-.01-5.05.56-4.2,1.56-8.53,3-12.36,5.25-34.75,20.4-62.76,48.16-86.32,80.5-5.7,7.83-9.51,17.05-14,25.73-.68,1.31-.34,3.15-.47,4.75,1.73,0,3.7.56,5.16-.07,6.09-2.65,12.56-4.88,17.9-8.67,12.47-8.84,24.92-17.86,36.36-27.96,20.55-18.13,38.93-38.35,52.77-62.23,2.95-5.08,4.8-10.8,7.16-16.23Z"/>
  <path class="cls-13" d="M126.43,221.29c-2.45,5.07-4.89,10.14-7.65,15.85-1.47-1.37-2.88-2.62-4.2-3.95-25.24-25.41-50.44-50.86-75.72-76.23-16.61-16.66-26.15-36.66-26.29-60.17-.2-33.93,18.81-63.98,50.77-77.57,8.23-3.5,16.71-6.65,25.99-5.83-7.73,5.38-15.9,10.24-23.09,16.26-13.23,11.09-21.25,25.7-25.95,42.21-.22.77-.64,1.47-.97,2.21-.89,3.76-2.29,7.49-2.56,11.3-.62,8.6-1.88,17.32,1.58,25.69,0,0-.03-.05-.03-.05.34,1.71.68,3.42,1.02,5.12.09.2.09.41.02.62-.03.47-.05.94-.07,1.41-2.34,1.47-5.93,2.48-6.67,4.53-.71,1.98,1.14,5.24,2.52,7.53,2.46,4.08,6.45,4.66,10.81,3.57,1.45,1.78,2.9,3.56,4.35,5.34-1.99,3.9.1,6.55,2.7,9.14,10.67,10.65,21.25,21.39,31.99,31.97,1.42,1.4,3.56,2.07,5.37,3.08,1.2,1.91,2.1,4.12,3.65,5.68,10.73,10.83,21.59,21.53,32.42,32.27Z"/>
  <path class="cls-4" d="M224.45,342.02c8.22,3.18,14.67,12.67,14.81,21.79.15,9.51-6.54,19.25-16,23.3-11.91,5.1-25.62-.71-31.59-12.96-6.11-12.53,1.05-26.72,10.42-31.13.72-.34,1.44-.68,2.16-1.03,0,0-.04.03-.04.03.68-.34,1.37-.67,2.05-1.01,0,0-.04.03-.04.03,5.04,0,10.07-.02,15.11-.03,0,0-.02-.01-.02-.01,1.05.34,2.1.69,3.14,1.03ZM214.5,352.21c-6-.18-12.03,5.56-12.2,11.63-.16,5.95,5.61,12.01,11.64,12.2,5.94.19,11.93-5.53,12.19-11.64.25-5.91-5.56-12-11.63-12.18Z"/>
  <path class="cls-4" d="M248.35,441.02c13.94.04,23,9.09,22.96,22.93-.04,12.97-10.83,23.27-24.27,23.16-13.23-.11-22.84-10.62-22.79-24.94.04-12.71,9.7-21.19,24.1-21.15ZM247.68,453.06c-6.65,0-10.44,3.83-10.43,10.51,0,6.3,4.32,10.56,10.62,10.49,5.72-.07,10.36-4.74,10.38-10.46.02-6.32-4.22-10.54-10.57-10.53Z"/>
  <path class="cls-4" d="M278.62,426.14c-12.92,0-23.31-10.11-23.38-22.74-.07-12.97,10.31-23.31,23.37-23.37,12.77-.06,23.12,9.54,23.35,23.37.21,12.58-11.13,23.54-23.35,22.74ZM278.65,413.07c5.86.03,9.73-4.01,9.69-10.11-.04-5.76-3.91-9.8-9.46-9.87-5.66-.07-10.68,4.78-10.57,10.21.11,5.56,4.53,9.74,10.34,9.77Z"/>
  <path class="cls-4" d="M140.21,312.02c-1.38-10.25,9.7-20.58,19.42-20.17,11.78.51,20.75,8.8,20.67,20.26-.07,11.14-9.17,19.92-20.48,20.01-10.55.08-20.5-9.58-19.6-20.1ZM165.2,306.11l.04.04c-.67-.35-1.35-.7-2.02-1.05l.05.03c-2.33,0-4.65.01-6.98.02,0,0,.05-.04.05-.04-.35.36-.7.73-1.05,1.09-.3.3-.6.59-.9.89-.36.4-.72.79-1.08,1.19.67,3.19,1.33,6.38,2,9.56.71.4,1.42.79,2.13,1.19.29-.01.57.02.85.09,1.33-.02,2.66-.05,3.98-.07,0,0-.03.02-.03.02.67-.35,1.35-.7,2.02-1.05,0,0-.04.03-.04.03.67-.68,1.35-1.35,2.02-2.03l-.03.04c.35-.68.69-1.36,1.04-2.03l-.02.04c.01-1.33.02-2.67.03-4v.02c-.35-1-.71-1.99-1.07-2.99l.04.04c-.34-.34-.69-.69-1.03-1.03Z"/>
  <path class="cls-4" d="M196.29,286.07c-.08-.24-.12-.49-.1-.75-.33-.74-.67-1.48-1-2.21,0,0,.02.03.02.03,0-4.37,0-8.74-.01-13.11,0,0-.01.01-.01.01.35-1,.7-2.01,1.05-3.01,0,0-.02.03-.02.03.34-.35.67-.7,1.01-1.05,0,0-.04.03-.04.03.35-.68.71-1.36,1.06-2.04,4.98-6.08,15.15-9.02,22.58-6.54,7.7,2.57,12.13,9.56,12.57,19.79.34,8.12-5.66,16.29-13.58,18.5-9.32,2.6-18.64-.93-22.57-8.54-.32-.38-.64-.76-.96-1.14ZM213.54,269.14c-3.82.13-7.42,3.88-7.16,7.45.29,4.1,3.39,6.7,7.8,6.54,3.88-.14,7.04-3.32,6.87-6.93-.18-3.97-3.61-7.2-7.51-7.07Z"/>
  <path class="cls-4" d="M151.05,453.03c-9.22-.1-18.38-8.58-18.38-17.01,0-11.23,8.41-20.27,18.48-19.87,9.61.38,18.11,9.08,18.07,18.49-.04,9.4-9.02,18.49-18.17,18.39ZM158.11,434.3c-3.3-2.2-5.19-4.42-7.28-4.62-2.94-.29-5.89,1.98-5.07,5.11.53,2.02,3.48,4.46,5.57,4.69,1.68.18,3.69-2.67,6.78-5.17Z"/>
  <path class="cls-3" d="M90.36,183.34c-1.81-1.01-3.95-1.68-5.37-3.08-10.74-10.58-21.32-21.32-31.99-31.97-2.6-2.59-4.69-5.24-2.7-9.14,4.25-3.9,6.8-4.19,10.67-.36,11.35,11.22,22.62,22.53,33.74,33.98,4.21,4.33,2.05,9.23-4.35,10.58Z"/>
  <path class="cls-9" d="M45.95,133.81c-4.36,1.1-8.35.51-10.81-3.57-1.39-2.3-3.24-5.56-2.52-7.53.74-2.05,4.33-3.06,6.67-4.53.27.07.53.09.81.07,1.2,1.12,2.4,2.24,3.59,3.37,5.44,5.21,5.54,5.74,2.27,12.19Z"/>
  <path class="cls-14" d="M38.35,111.07c-3.46-8.38-2.2-17.1-1.58-25.69.27-3.81,1.67-7.54,2.56-11.3-.68,7.56-1.64,15.1-1.95,22.68-.19,4.75.61,9.54.96,14.32Z"/>
  <path class="cls-11" d="M221.32,341.01c-5.04,0-10.07.02-15.11.03,5.03-2.46,10.07-3.2,15.11-.03Z"/>
  <path class="cls-12" d="M195.2,270.03c0,4.37,0,8.74.01,13.11-2.78-4.37-2.84-8.74-.01-13.11Z"/>
  <path class="cls-14" d="M39.34,116.14c-.34-1.71-.68-3.42-1.02-5.12.34,1.71.68,3.42,1.02,5.12Z"/>
  <path class="cls-6" d="M434.28,302.13c.68-.68,1.37-1.36,2.05-2.04-.68.68-1.37,1.36-2.05,2.04Z"/>
  <path class="cls-6" d="M421.28,315.13c.67-.68,1.34-1.36,2.02-2.04-.67.68-1.34,1.36-2.02,2.04Z"/>
  <path class="cls-12" d="M196.24,267.03c-.35,1-.7,2.01-1.05,3.01.35-1,.7-2.01,1.05-3.01Z"/>
  <path class="cls-2" d="M310.25,155.03c-.68.67-1.35,1.35-2.03,2.02.68-.67,1.35-1.35,2.03-2.02Z"/>
  <path class="cls-11" d="M224.45,342.02c-1.05-.34-2.1-.68-3.14-1.03,1.05.34,2.1.68,3.14,1.03Z"/>
  <path class="cls-12" d="M198.25,263.99c-.35.68-.71,1.36-1.06,2.04.35-.68.71-1.36,1.06-2.04Z"/>
  <path class="cls-12" d="M195.19,283.1c.33.74.67,1.47,1,2.21-.33-.74-.67-1.48-1-2.21Z"/>
  <path class="cls-6" d="M445.32,290.15c.69-.35,1.38-.69,2.07-1.04-.69.35-1.38.69-2.07,1.04Z"/>
  <path class="cls-6" d="M444.28,292.12c.36-.66.71-1.33,1.07-1.99-.36.66-.71,1.33-1.07,1.99Z"/>
  <path class="cls-6" d="M424.32,311.15c.67-.35,1.34-.71,2-1.06-.67.35-1.34.71-2,1.06Z"/>
  <path class="cls-6" d="M423.28,313.1c.35-.66.71-1.32,1.06-1.98-.35.66-.71,1.32-1.06,1.98Z"/>
  <path class="cls-6" d="M417.32,318.15c.67-.36,1.34-.71,2-1.07-.67.36-1.34.71-2,1.07Z"/>
  <path class="cls-6" d="M410.32,325.16c.63-.36,1.27-.72,1.9-1.08-.63.36-1.27.72-1.9,1.08Z"/>
  <path class="cls-11" d="M206.26,341.01c-.68.34-1.37.67-2.05,1.01.68-.34,1.37-.67,2.05-1.01Z"/>
  <path class="cls-11" d="M204.24,341.99c-.72.34-1.44.68-2.16,1.03.72-.34,1.44-.68,2.16-1.03Z"/>
  <path class="cls-14" d="M40.09,118.24c-.27.02-.54,0-.81-.07.02-.47.05-.94.07-1.41.24.49.49.99.73,1.48Z"/>
  <path class="cls-2" d="M311.29,154.06c-.35.34-.71.67-1.06,1.01.35-.34.71-.67,1.06-1.01Z"/>
  <path class="cls-2" d="M308.26,157.03c-.35.34-.69.69-1.04,1.03.34-.34.69-.69,1.04-1.03Z"/>
  <path class="cls-2" d="M307.26,158.03c-.35.34-.69.69-1.04,1.04.35-.34.69-.69,1.04-1.04Z"/>
  <path class="cls-2" d="M306.26,159.03c-.35.35-.69.69-1.04,1.04.35-.35.69-.69,1.04-1.04Z"/>
  <path class="cls-2" d="M305.26,160.03c-.35.35-.69.69-1.04,1.04.35-.35.69-.69,1.04-1.04Z"/>
  <path class="cls-2" d="M304.26,161.03c-.35.35-.69.69-1.04,1.04.35-.35.69-.69,1.04-1.04Z"/>
  <path class="cls-2" d="M303.26,162.03c-.35.35-.69.69-1.04,1.04.35-.35.69-.69,1.04-1.04Z"/>
  <path class="cls-2" d="M302.26,163.02c-.35.34-.7.69-1.04,1.04.35-.34.7-.69,1.04-1.04Z"/>
  <path class="cls-2" d="M301.26,164.02c-.35.35-.7.69-1.04,1.04.35-.35.7-.69,1.04-1.04Z"/>
  <path class="cls-2" d="M300.25,165.02c-.35.35-.69.69-1.04,1.04.35-.35.69-.69,1.04-1.04Z"/>
  <path class="cls-2" d="M299.25,166.01c-.35.35-.69.7-1.04,1.04.35-.35.69-.7,1.04-1.04Z"/>
  <path class="cls-2" d="M298.25,167.02c-.35.35-.69.69-1.04,1.04.35-.35.69-.69,1.04-1.04Z"/>
  <path class="cls-2" d="M297.25,168.02c-.35.35-.69.69-1.04,1.04.35-.35.69-.69,1.04-1.04Z"/>
  <path class="cls-2" d="M296.25,169.02c-.35.35-.69.69-1.04,1.04.35-.35.69-.69,1.04-1.04Z"/>
  <path class="cls-2" d="M295.25,170.02c-.35.35-.69.69-1.04,1.04.35-.35.69-.69,1.04-1.04Z"/>
  <path class="cls-2" d="M294.25,171.02c-.35.35-.69.69-1.04,1.04.35-.35.69-.69,1.04-1.04Z"/>
  <path class="cls-2" d="M293.25,172.01c-.35.35-.69.7-1.04,1.04.35-.35.69-.7,1.04-1.04Z"/>
  <path class="cls-2" d="M292.25,173.02c-.35.35-.69.69-1.04,1.04.35-.35.69-.69,1.04-1.04Z"/>
  <path class="cls-2" d="M291.25,174.02c-.35.35-.69.69-1.04,1.04.35-.35.69-.69,1.04-1.04Z"/>
  <path class="cls-2" d="M290.25,175.02c-.35.35-.69.69-1.04,1.04.35-.35.69-.69,1.04-1.04Z"/>
  <path class="cls-2" d="M289.25,176.02c-.35.35-.69.69-1.04,1.04.35-.35.69-.69,1.04-1.04Z"/>
  <path class="cls-6" d="M441.28,295.14c.35-.36.69-.71,1.04-1.07-.35.36-.69.71-1.04,1.07Z"/>
  <path class="cls-2" d="M279.25,185.93c-.35.37-.69.75-1.04,1.12.35-.37.69-.75,1.04-1.12Z"/>
  <path class="cls-6" d="M438.28,298.1c.35-.34.71-.68,1.06-1.02-.35.34-.71.68-1.06,1.02Z"/>
  <path class="cls-6" d="M437.27,299.11c.34-.34.68-.69,1.02-1.03-.34.34-.68.69-1.02,1.03Z"/>
  <path class="cls-2" d="M274.25,191.01c-.38.35-.76.69-1.15,1.04.38-.35.77-.69,1.15-1.04Z"/>
  <path class="cls-12" d="M196.29,286.07c.32.38.64.76.96,1.14-.32-.38-.64-.76-.96-1.14Z"/>
  <path class="cls-2" d="M275.25,190.01c-.35.35-.69.69-1.04,1.04.35-.35.69-.69,1.04-1.04Z"/>
  <path class="cls-2" d="M276.25,189.01c-.35.35-.69.7-1.04,1.04.35-.35.69-.7,1.04-1.04Z"/>
  <path class="cls-6" d="M449.29,287.2c.35-.37.69-.74,1.04-1.11-.35.37-.69.74-1.04,1.11Z"/>
  <path class="cls-2" d="M277.25,188.02c-.35.35-.7.69-1.04,1.04.35-.35.7-.69,1.04-1.04Z"/>
  <path class="cls-2" d="M278.25,187.02c-.35.35-.69.69-1.04,1.04.35-.35.69-.69,1.04-1.04Z"/>
  <path class="cls-6" d="M451.29,285.13c.36-.35.72-.69,1.09-1.04-.36.35-.73.69-1.09,1.04Z"/>
  <path class="cls-6" d="M416.33,319.14c.34-.34.67-.67,1.01-1.01-.34.34-.67.67-1.01,1.01Z"/>
  <path class="cls-2" d="M281.25,184.01c-.37.35-.75.69-1.13,1.04.37-.35.75-.69,1.13-1.04Z"/>
  <path class="cls-6" d="M415.33,320.14c.34-.34.67-.67,1.01-1.01-.34.34-.67.67-1.01,1.01Z"/>
  <path class="cls-6" d="M414.33,321.14c.34-.34.67-.67,1.01-1.01-.34.34-.67.67-1.01,1.01Z"/>
  <path class="cls-6" d="M413.33,322.14c.34-.34.67-.67,1.01-1.01-.34.34-.67.67-1.01,1.01Z"/>
  <path class="cls-6" d="M450.29,286.13c.35-.35.69-.69,1.04-1.04-.35.35-.69.69-1.04,1.04Z"/>
  <path class="cls-6" d="M412.37,323.45c.32-.44.64-.88.97-1.32-.32.44-.64.88-.97,1.32Z"/>
  <path class="cls-6" d="M409.32,326.14c.34-.34.68-.68,1.02-1.02-.34.34-.68.68-1.02,1.02Z"/>
  <path class="cls-6" d="M408.32,327.15c.34-.34.68-.68,1.02-1.02-.34.34-.68.68-1.02,1.02Z"/>
  <path class="cls-6" d="M407.32,328.28c.34-.39.68-.78,1.02-1.16-.34.39-.68.78-1.02,1.16Z"/>
  <path class="cls-2" d="M282.25,183.02c-.35.35-.69.69-1.04,1.04.35-.35.7-.69,1.04-1.04Z"/>
  <path class="cls-12" d="M197.22,266.01c-.34.35-.67.7-1.01,1.05.34-.35.67-.7,1.01-1.05Z"/>
  <path class="cls-2" d="M283.26,182.02c-.35.35-.69.69-1.04,1.04.35-.35.69-.69,1.04-1.04Z"/>
  <path class="cls-2" d="M284.25,181.02c-.35.35-.69.7-1.04,1.04.35-.35.69-.7,1.04-1.04Z"/>
  <path class="cls-2" d="M285.25,180.01c-.35.35-.69.7-1.04,1.04.35-.35.69-.7,1.04-1.04Z"/>
  <path class="cls-2" d="M286.25,179.02c-.35.35-.69.69-1.04,1.04.35-.35.69-.69,1.04-1.04Z"/>
  <path class="cls-2" d="M287.25,178.02c-.35.35-.69.69-1.04,1.04.35-.35.69-.69,1.04-1.04Z"/>
  <path class="cls-2" d="M288.25,177.02c-.35.35-.69.69-1.04,1.04.35-.35.69-.69,1.04-1.04Z"/>
  <path class="cls-15" d="M421.26,297.08c.65-.36,1.3-.72,1.96-1.08-.65.36-1.3.72-1.96,1.08Z"/>
  <path class="cls-15" d="M425.21,294.02c.34-.34.67-.67,1.01-1.01-.34.34-.67.67-1.01,1.01Z"/>
  <path class="cls-15" d="M424.21,295.02c.34-.34.67-.67,1.01-1.01-.34.34-.67.67-1.01,1.01Z"/>
  <path class="cls-15" d="M423.21,296.02c.34-.34.67-.67,1.01-1.01-.34.34-.67.67-1.01,1.01Z"/>
  <path class="cls-15" d="M411.23,307.06c.35-.35.69-.7,1.04-1.05-.35.35-.69.7-1.04,1.05Z"/>
  <path class="cls-15" d="M410.23,308.06c.34-.34.69-.69,1.03-1.03-.34.34-.69.69-1.03,1.03Z"/>
  <path class="cls-15" d="M409.23,309.06c.34-.34.69-.69,1.03-1.03-.34.34-.69.69-1.03,1.03Z"/>
  <path class="cls-15" d="M408.23,310.06c.34-.34.69-.69,1.03-1.03-.34.34-.69.69-1.03,1.03Z"/>
  <path class="cls-15" d="M407.23,311.06c.34-.34.69-.69,1.03-1.03-.34.34-.69.69-1.03,1.03Z"/>
  <path class="cls-15" d="M406.23,312.06c.34-.34.69-.69,1.03-1.03-.34.34-.69.69-1.03,1.03Z"/>
  <path class="cls-15" d="M431.21,288.02c.33-.42.65-.85.98-1.28-.33.42-.65.85-.98,1.28Z"/>
  <path class="cls-15" d="M405.22,313.06c.34-.34.69-.69,1.03-1.03-.34.34-.69.69-1.03,1.03Z"/>
  <path class="cls-15" d="M404.22,314.06c.34-.34.69-.69,1.03-1.03-.34.34-.69.69-1.03,1.03Z"/>
  <path class="cls-15" d="M430.21,289.02c.34-.34.67-.67,1.01-1.01-.34.34-.67.67-1.01,1.01Z"/>
  <path class="cls-15" d="M403.23,315.06c.34-.34.69-.69,1.03-1.03-.34.34-.69.69-1.03,1.03Z"/>
  <path class="cls-15" d="M402.23,316.06c.34-.34.69-.69,1.03-1.03-.34.34-.69.69-1.03,1.03Z"/>
  <path class="cls-15" d="M401.23,317.06c.34-.34.69-.69,1.03-1.03-.34.34-.69.69-1.03,1.03Z"/>
  <path class="cls-15" d="M400.22,318.06c.34-.34.69-.69,1.03-1.03-.34.34-.69.69-1.03,1.03Z"/>
  <path class="cls-15" d="M429.21,290.02c.34-.34.67-.67,1.01-1.01-.34.34-.67.67-1.01,1.01Z"/>
  <path class="cls-15" d="M428.21,291.02c.34-.34.67-.67,1.01-1.01-.34.34-.67.67-1.01,1.01Z"/>
  <path class="cls-15" d="M399.22,319.06c.34-.34.69-.69,1.03-1.03-.34.34-.69.69-1.03,1.03Z"/>
  <path class="cls-15" d="M398.22,320.06c.34-.34.69-.69,1.03-1.03-.34.34-.69.69-1.03,1.03Z"/>
  <path class="cls-15" d="M397.22,321.06c.34-.34.69-.69,1.03-1.03-.34.34-.69.69-1.03,1.03Z"/>
  <path class="cls-15" d="M396.22,322.06c.34-.34.69-.69,1.03-1.03-.34.34-.69.69-1.03,1.03Z"/>
  <path class="cls-15" d="M394.22,324.06c.34-.34.69-.69,1.03-1.03-.34.34-.69.69-1.03,1.03Z"/>
  <path class="cls-15" d="M393.17,325.06c.36-.34.73-.69,1.09-1.03-.36.34-.73.69-1.09,1.03Z"/>
  <path class="cls-15" d="M427.21,292.02c.34-.34.67-.67,1.01-1.01-.34.34-.67.67-1.01,1.01Z"/>
  <path class="cls-15" d="M426.21,293.02c.34-.34.67-.67,1.01-1.01-.34.34-.67.67-1.01,1.01Z"/>
  <path class="cls-15" d="M395.22,323.06c.34-.34.69-.69,1.03-1.03-.34.34-.69.69-1.03,1.03Z"/>
  <path class="cls-10" d="M163.27,305.13c-2.33,0-4.65.01-6.98.02,2.33,0,4.65-.01,6.98-.02Z"/>
  <path class="cls-10" d="M158.29,319.12c1.33-.02,2.66-.05,3.98-.07-1.33.02-2.66.05-3.98.07Z"/>
  <path class="cls-10" d="M167.23,314.07c.01-1.33.02-2.67.03-4-.01,1.33-.02,2.67-.03,4Z"/>
  <path class="cls-10" d="M167.27,310.09c-.36-1-.72-1.99-1.08-2.99.36.99.72,1.99,1.08,2.99Z"/>
  <path class="cls-10" d="M164.22,318.05c.67-.68,1.35-1.35,2.02-2.03-.67.68-1.35,1.35-2.02,2.03Z"/>
  <path class="cls-10" d="M165.24,306.16c-.67-.35-1.35-.7-2.02-1.05.67.35,1.35.7,2.02,1.05Z"/>
  <path class="cls-10" d="M166.21,316.06c.35-.68.69-1.35,1.04-2.03-.35.68-.69,1.36-1.04,2.03Z"/>
  <path class="cls-10" d="M155.31,317.84c.71.4,1.42.79,2.13,1.19-.71-.4-1.42-.79-2.13-1.19Z"/>
  <path class="cls-10" d="M162.24,319.06c.67-.35,1.35-.7,2.02-1.04-.67.35-1.35.7-2.02,1.04Z"/>
  <path class="cls-10" d="M156.34,305.11c-.35.36-.7.73-1.05,1.09.35-.36.7-.73,1.05-1.09Z"/>
  <path class="cls-10" d="M166.23,307.14c-.34-.34-.69-.69-1.03-1.03.34.34.69.69,1.03,1.03Z"/>
  <path class="cls-10" d="M154.39,307.09c-.36.39-.72.79-1.08,1.19.36-.39.72-.79,1.08-1.19Z"/>
  <path class="cls-7" d="M344.26,164.01c.31-.32.62-.63.94-.95.69-.69,1.38-1.38,2.06-2.06.32-.31.65-.62.97-.93.68-.35,1.36-.71,2.04-1.06,3.44-2.21,5.79-.08,7.49,2.37,1.9,2.74,1.37,5.57-1.13,8.03-7.45,7.36-14.81,14.79-22.21,22.19-4.21,4.21-8.32,8.55-12.69,12.59-3.57,3.3-6.84,2.47-9.48-2.02,0-1.77-.02-3.54-.03-5.32,0-.28.04-.55.14-.82.3-.34.61-.67.91-1.01,0,0-.03.02-.03.02.66-.35,1.33-.71,1.99-1.06,0,0-.03.03-.03.03.35-.67.71-1.33,1.06-2,0,0-.02.02-.02.02.67-.35,1.33-.71,1.99-1.06,0,0-.02.02-.02.02.34-.34.67-.67,1.01-1.01,0,0-.02.02-.02.02.35-.68.71-1.35,1.06-2.03.31-.31.63-.63.94-.94.69-.69,1.37-1.38,2.06-2.07.31-.31.62-.62.94-.94.68-.35,1.36-.71,2.03-1.06,0,0-.02.02-.02.02.34-.34.67-.67,1.01-1.01,0,0-.02.02-.02.02.35-.66.71-1.33,1.06-1.99,0,0-.02.02-.02.02.66-.35,1.33-.71,1.99-1.06,0,0-.02.03-.02.03.34-.34.68-.68,1.01-1.01,0,0-.02.02-.02.02.35-.67.71-1.33,1.06-2,0,0-.02.02-.02.02.67-.35,1.33-.71,2-1.06,0,0-.02.02-.02.02.34-.34.67-.67,1.01-1.01,0,0-.02.02-.02.02.35-.68.71-1.35,1.06-2.03.31-.32.62-.63.93-.95.69-.69,1.38-1.38,2.07-2.06.31-.31.62-.62.94-.93.68-.35,1.36-.71,2.03-1.06,0,0-.02.02-.02.02.34-.34.67-.67,1.01-1.01,0,0-.02.02-.02.02.35-.68.71-1.35,1.06-2.02Z"/>
  <path class="cls-8" d="M376.34,147.09c-.06,4.47-5.7,10.18-10.06,9.99-3.94-.17-6.02-2.38-6.1-6.35-.07-3.88,6.17-10.51,9.82-10.49,3.68.02,6.39,2.94,6.34,6.85Z"/>
  <path class="cls-5" d="M312.22,196.87c0,1.77.02,3.54.03,5.32,0-1.77-.02-3.54-.03-5.32Z"/>
  <path class="cls-5" d="M323.26,185c-.69.69-1.37,1.38-2.06,2.07.69-.69,1.37-1.38,2.06-2.07Z"/>
  <path class="cls-5" d="M339.26,169c-.69.69-1.38,1.38-2.07,2.06.69-.69,1.38-1.38,2.07-2.06Z"/>
  <path class="cls-5" d="M347.26,161c-.69.69-1.37,1.38-2.06,2.06.69-.69,1.37-1.38,2.06-2.06Z"/>
  <path class="cls-5" d="M332.25,176.04c-.35.67-.71,1.33-1.06,2,.35-.67.71-1.33,1.06-2Z"/>
  <path class="cls-5" d="M330.23,179c-.66.35-1.33.71-1.99,1.06.66-.35,1.33-.71,1.99-1.06Z"/>
  <path class="cls-5" d="M328.26,180.04c-.35.66-.71,1.33-1.06,1.99.35-.66.71-1.33,1.06-1.99Z"/>
  <path class="cls-5" d="M326.23,183c-.68.35-1.36.71-2.03,1.06.68-.35,1.36-.71,2.03-1.06Z"/>
  <path class="cls-5" d="M320.26,188c-.35.68-.71,1.35-1.06,2.03.35-.68.71-1.35,1.06-2.03Z"/>
  <path class="cls-5" d="M318.23,191c-.66.35-1.33.71-1.99,1.06.66-.35,1.33-.71,1.99-1.06Z"/>
  <path class="cls-5" d="M316.25,192.04c-.35.67-.71,1.33-1.06,2,.35-.66.71-1.33,1.06-2Z"/>
  <path class="cls-5" d="M315.23,194c-.66.35-1.33.71-1.99,1.06.66-.35,1.33-.71,1.99-1.06Z"/>
  <path class="cls-5" d="M350.27,159.01c-.68.35-1.36.71-2.04,1.06.68-.35,1.36-.71,2.04-1.06Z"/>
  <path class="cls-5" d="M344.26,164.01c-.35.67-.71,1.35-1.06,2.02.35-.67.71-1.35,1.06-2.02Z"/>
  <path class="cls-5" d="M342.23,167c-.68.35-1.36.71-2.03,1.06.68-.35,1.36-.71,2.03-1.06Z"/>
  <path class="cls-5" d="M336.26,172.01c-.35.68-.71,1.35-1.06,2.03.35-.68.71-1.35,1.06-2.03Z"/>
  <path class="cls-5" d="M334.23,175c-.67.35-1.33.71-2,1.06.66-.35,1.33-.71,2-1.06Z"/>
  <path class="cls-5" d="M343.22,166.01c-.34.34-.67.67-1.01,1.01.34-.34.67-.67,1.01-1.01Z"/>
  <path class="cls-5" d="M335.22,174.01c-.34.34-.67.67-1.01,1.01.34-.34.67-.67,1.01-1.01Z"/>
  <path class="cls-5" d="M313.26,195.04c-.31.34-.61.67-.91,1.01.31-.34.61-.67.91-1.01Z"/>
  <path class="cls-5" d="M319.22,190.01c-.34.34-.67.67-1.01,1.01.34-.34.67-.67,1.01-1.01Z"/>
  <path class="cls-5" d="M327.22,182.01c-.34.34-.67.67-1.01,1.01.34-.34.67-.67,1.01-1.01Z"/>
  <path class="cls-5" d="M331.22,178.01c-.34.34-.68.67-1.01,1.01.34-.34.68-.67,1.01-1.01Z"/>
</svg>