<?xml version="1.0" standalone="no"?>
<!DOCTYPE svg PUBLIC "-//W3C//DTD SVG 20010904//EN"
 "http://www.w3.org/TR/2001/REC-SVG-20010904/DTD/svg10.dtd">
<svg version="1.0" xmlns="http://www.w3.org/2000/svg"
 width="323.000000pt" height="325.000000pt" viewBox="0 0 323.000000 325.000000"
 preserveAspectRatio="xMidYMid meet">

<g transform="translate(0.000000,325.000000) scale(0.100000,-0.100000)"
fill="#000000" stroke="none">
<path d="M1480 3214 c-400 -50 -719 -202 -986 -468 -236 -237 -380 -509 -446
-846 -31 -162 -31 -397 0 -560 66 -336 210 -609 446 -846 237 -236 509 -380
846 -446 162 -31 397 -31 560 0 228 45 414 120 602 245 362 239 603 606 690
1047 32 162 32 398 0 560 -66 337 -210 609 -446 846 -297 297 -673 458 -1091
469 -77 2 -156 1 -175 -1z m269 -198 c-2 -2 -42 -14 -89 -27 -47 -12 -107 -32
-135 -45 -49 -21 -49 -22 -22 -29 15 -4 39 -21 53 -38 22 -27 25 -37 20 -74
-20 -144 -22 -130 15 -152 48 -29 70 -26 110 15 39 41 103 76 169 94 68 18
137 59 176 104 64 75 67 77 94 71 60 -15 329 -170 330 -191 0 -5 -18 -23 -40
-40 -48 -35 -59 -67 -37 -107 21 -36 21 -65 0 -89 -28 -31 -68 -23 -104 21
-44 56 -55 57 -100 10 -42 -44 -51 -79 -21 -79 28 0 50 -29 62 -83 12 -56 10
-63 -28 -70 -15 -3 -40 -15 -55 -27 -22 -17 -27 -29 -27 -63 0 -23 7 -51 15
-61 21 -27 19 -50 -6 -72 -27 -24 -120 -158 -147 -210 -69 -135 -36 -300 77
-379 l43 -30 127 3 127 2 26 -27 c34 -37 112 -245 105 -281 -3 -15 -11 -49
-17 -76 -19 -76 -1 -157 60 -279 29 -56 62 -113 73 -126 l22 -23 -83 -78
c-201 -190 -459 -314 -725 -349 -170 -23 -422 -10 -558 30 -68 20 -78 31 -79
83 0 55 200 402 314 543 25 30 37 57 41 90 3 27 20 82 37 123 36 88 44 130 30
157 -6 10 -43 31 -84 47 -84 33 -101 44 -211 138 -89 76 -186 128 -286 154
-70 17 -106 14 -176 -17 -25 -11 -58 -19 -72 -17 -22 2 -29 10 -38 48 -7 25
-26 67 -42 93 -17 26 -34 63 -37 82 -4 19 -10 35 -15 35 -4 0 -22 -11 -41 -25
-42 -31 -74 -32 -94 -3 -36 51 -8 139 56 178 61 37 165 21 201 -31 14 -20 17
-18 51 49 48 90 116 165 229 252 51 39 117 91 147 115 30 24 62 44 71 45 8 0
26 -11 39 -25 27 -29 84 -35 94 -9 10 27 7 78 -9 131 -12 39 -27 62 -62 92
-25 23 -44 43 -42 44 2 2 30 16 62 31 65 31 83 57 73 108 -18 95 -170 137
-285 79 -92 -47 -281 -89 -281 -63 0 8 91 63 167 101 101 50 271 103 392 120
56 9 348 14 340 7z m1016 -881 c33 -13 70 -25 83 -25 39 0 22 -33 -28 -52 -92
-35 -277 -11 -325 42 -17 19 -16 20 11 31 95 37 175 39 259 4z m-2487 -266
c25 -9 34 -19 43 -51 12 -48 47 -85 86 -93 102 -21 120 -30 222 -113 30 -24
81 -57 113 -73 33 -16 62 -37 65 -45 3 -8 -13 -50 -36 -94 -69 -133 -52 -203
87 -353 97 -104 108 -133 123 -315 12 -151 32 -269 59 -346 11 -33 18 -61 16
-64 -7 -6 -104 50 -206 117 -106 71 -288 245 -362 348 -108 150 -184 315 -234
508 -27 105 -29 121 -29 330 0 194 4 255 18 255 2 0 18 -5 35 -11z"/>
</g>
</svg>
