<?xml version="1.0" standalone="no"?>
<!DOCTYPE svg PUBLIC "-//W3C//DTD SVG 20010904//EN"
 "http://www.w3.org/TR/2001/REC-SVG-20010904/DTD/svg10.dtd">
<svg version="1.0" xmlns="http://www.w3.org/2000/svg"
 width="128.000000pt" height="128.000000pt" viewBox="0 0 128.000000 128.000000"
 preserveAspectRatio="xMidYMid meet">

<g transform="translate(0.000000,128.000000) scale(0.100000,-0.100000)"
fill="#000000" stroke="none">
<path d="M497 1205 c-189 -48 -353 -197 -418 -381 -30 -82 -37 -228 -15 -314
53 -212 230 -386 442 -436 91 -21 235 -14 321 16 170 59 308 200 364 372 34
103 34 253 0 356 -56 172 -193 312 -364 372 -81 29 -246 36 -330 15z m255 -26
c90 -19 192 -74 267 -145 177 -166 221 -419 113 -642 -39 -81 -159 -199 -243
-240 -131 -63 -258 -77 -393 -42 -97 25 -165 61 -235 126 -228 211 -234 575
-12 794 108 107 228 157 378 159 40 1 96 -4 125 -10z"/>
<path d="M585 955 c-14 -13 -25 -33 -25 -45 0 -54 93 -83 124 -38 22 31 20 64
-6 88 -29 27 -64 25 -93 -5z"/>
<path d="M570 555 l0 -235 65 0 65 0 0 235 0 235 -65 0 -65 0 0 -235z"/>
</g>
</svg>
