<?xml version="1.0" standalone="no"?>
<!DOCTYPE svg PUBLIC "-//W3C//DTD SVG 20010904//EN"
 "http://www.w3.org/TR/2001/REC-SVG-20010904/DTD/svg10.dtd">
<svg version="1.0" xmlns="http://www.w3.org/2000/svg"
 width="256.000000pt" height="256.000000pt" viewBox="0 0 256.000000 256.000000"
 preserveAspectRatio="xMidYMid meet">

<g transform="translate(0.000000,256.000000) scale(0.100000,-0.100000)"
fill="#000000" stroke="none">
<path d="M921 2547 c-10 -13 0 -62 35 -179 5 -16 -2 -18 -58 -18 -55 0 -116
-10 -170 -26 -12 -3 -29 18 -68 86 -37 65 -57 90 -71 90 -36 0 -32 -29 15
-111 47 -83 53 -99 38 -99 -11 0 -115 -69 -160 -106 l-33 -27 -68 67 c-46 45
-75 67 -87 64 -39 -7 -27 -39 42 -109 l67 -68 -27 -33 c-37 -45 -106 -149
-106 -160 0 -15 -16 -9 -99 38 -82 47 -111 51 -111 15 0 -14 25 -34 90 -72 66
-38 89 -56 86 -68 -16 -53 -26 -114 -26 -169 0 -56 -2 -63 -17 -58 -158 47
-193 49 -193 10 0 -18 22 -28 110 -49 99 -23 106 -28 115 -72 3 -21 19 -68 35
-105 l28 -67 -92 -3 c-90 -3 -91 -3 -91 -28 0 -25 0 -25 111 -28 l110 -3 62
-69 c34 -38 62 -71 62 -73 0 -3 -15 -8 -34 -11 -88 -17 -136 -37 -136 -57 0
-32 26 -33 128 -6 l97 26 77 -76 c42 -42 75 -80 72 -84 -2 -4 -38 -27 -80 -51
-59 -33 -74 -47 -72 -63 5 -33 35 -29 117 19 43 25 82 46 87 46 4 0 27 -18 49
-40 l41 -40 -68 -68 c-68 -69 -84 -104 -52 -116 11 -4 39 17 90 66 l75 72 55
-55 56 -56 -51 -86 c-28 -47 -51 -90 -51 -95 0 -5 7 -15 15 -22 21 -18 37 -2
87 87 l42 74 85 -85 85 -85 -27 -102 c-24 -90 -25 -105 -13 -117 26 -26 42 -5
66 82 12 47 25 86 27 86 2 0 26 -15 54 -34 27 -19 58 -38 69 -41 18 -6 20 -16
20 -114 0 -113 9 -138 44 -125 13 5 16 23 16 104 l0 98 51 -13 c28 -8 53 -16
55 -18 3 -2 16 -47 30 -98 28 -107 45 -132 70 -107 14 14 14 23 -9 107 l-25
91 38 0 c20 0 77 7 125 15 48 9 89 14 90 13 1 -2 19 -33 39 -70 51 -92 67
-111 89 -103 26 11 21 34 -28 117 -25 43 -45 80 -45 82 0 3 21 17 48 30 26 14
72 45 102 70 l55 45 72 -71 c49 -49 76 -69 87 -65 38 15 29 38 -42 110 l-70
72 45 55 c24 30 55 76 69 103 13 26 26 47 27 47 2 0 39 -20 83 -45 85 -48 108
-54 118 -29 9 24 -3 35 -94 85 -91 49 -84 30 -61 164 6 33 11 76 11 97 l0 36
91 -25 c84 -23 93 -23 107 -9 25 25 0 42 -107 70 -51 14 -96 27 -98 30 -2 2
-10 27 -18 55 l-13 51 98 0 c81 0 99 3 104 16 13 35 -12 44 -125 44 -98 0
-108 2 -114 20 -3 11 -22 42 -41 69 -19 28 -34 52 -34 54 0 2 39 15 86 27 88
24 108 40 82 66 -13 13 -26 12 -106 -10 -50 -14 -97 -26 -104 -26 -7 0 -50 37
-95 82 l-82 82 70 42 c93 55 106 68 89 88 -7 9 -17 16 -22 16 -5 0 -48 -23
-95 -51 l-86 -51 -56 56 -55 55 73 76 c61 63 71 78 61 90 -21 26 -40 17 -111
-52 l-69 -67 -44 43 -44 43 50 84 c51 88 57 117 23 122 -16 2 -30 -13 -63 -72
-24 -42 -47 -78 -51 -80 -4 -3 -42 30 -84 72 l-76 77 26 97 c27 102 26 128 -6
128 -20 0 -40 -48 -57 -136 -3 -19 -8 -34 -11 -34 -2 0 -35 28 -73 62 l-69 62
-3 110 c-3 111 -3 111 -28 111 -25 0 -25 -1 -28 -92 l-3 -92 -47 22 c-26 11
-74 28 -107 37 l-60 17 -23 84 c-13 46 -27 94 -32 107 -11 25 -32 29 -49 9z
m138 -272 c35 -9 96 -32 135 -52 64 -33 115 -80 532 -497 492 -493 498 -500
540 -641 24 -81 24 -239 0 -320 -33 -110 -74 -174 -186 -285 -111 -112 -175
-153 -285 -186 -81 -24 -239 -24 -320 0 -141 42 -148 48 -641 540 -417 417
-464 468 -497 532 -46 89 -67 176 -67 278 0 171 57 294 204 442 110 109 195
162 302 188 78 19 204 19 283 1z"/>
<path d="M796 2219 c-42 -12 -85 -57 -97 -103 -14 -50 10 -117 52 -146 120
-86 274 40 210 172 -30 64 -99 96 -165 77z m104 -87 c28 -35 25 -69 -9 -103
-33 -32 -65 -37 -99 -13 -53 37 -47 114 11 139 38 16 73 8 97 -23z"/>
<path d="M1199 1937 c-90 -60 -88 -181 4 -237 61 -37 152 -17 191 42 60 92 -9
218 -119 218 -27 0 -54 -8 -76 -23z m122 -50 c19 -15 39 -50 39 -71 0 -8 -12
-28 -26 -45 -42 -50 -109 -40 -134 19 -14 34 0 83 29 100 23 13 73 12 92 -3z"/>
<path d="M647 1864 c-4 -4 -7 -24 -7 -45 0 -43 -15 -53 -58 -37 -59 23 -86
-19 -32 -50 33 -19 34 -21 21 -40 -6 -10 -13 -11 -35 -1 -22 10 -29 10 -42 -2
-19 -20 -8 -48 22 -55 29 -7 30 -15 5 -45 l-19 -24 -32 23 c-25 19 -34 21 -46
12 -19 -17 -18 -30 7 -56 30 -32 17 -70 -32 -95 -22 -10 -39 -26 -39 -34 0
-22 30 -34 58 -24 30 11 55 -15 46 -46 -16 -56 -16 -75 1 -82 17 -6 46 18 57
46 2 5 18 6 36 3 26 -3 36 -11 44 -33 21 -61 76 -58 64 4 -6 31 -4 35 19 41
18 5 34 1 52 -14 14 -11 34 -20 44 -20 26 0 25 41 -1 65 -19 18 -19 18 8 50
25 29 29 31 57 19 17 -6 36 -9 43 -7 22 8 13 44 -17 60 -25 15 -27 20 -20 43
8 22 14 25 44 22 25 -3 36 0 41 12 8 22 -12 44 -44 48 -21 2 -28 10 -32 33 -5
25 -1 33 22 47 17 11 28 27 28 39 0 20 -4 21 -49 15 -54 -7 -70 8 -51 44 27
50 -7 93 -41 52 -9 -12 -19 -27 -21 -32 -2 -5 -13 -7 -25 -4 -16 4 -23 15 -25
38 -2 22 -9 32 -23 34 -12 2 -24 0 -28 -4z m102 -149 c115 -98 23 -327 -139
-343 -59 -5 -93 12 -108 58 -10 28 -8 34 33 80 47 53 74 100 94 162 13 40 43
68 72 68 10 0 31 -11 48 -25z"/>
<path d="M1664 1516 c-4 -9 -4 -27 -2 -41 7 -37 -13 -49 -55 -34 -64 23 -94
-17 -37 -49 17 -9 29 -24 27 -32 -3 -15 -15 -16 -54 -5 -16 5 -24 1 -33 -14
-10 -19 -7 -24 19 -39 36 -20 37 -24 15 -57 l-16 -25 -30 25 c-33 28 -46 28
-62 2 -9 -13 -5 -22 15 -43 23 -23 25 -29 16 -55 -8 -19 -22 -33 -44 -40 -25
-8 -33 -16 -33 -34 0 -28 16 -35 49 -23 18 6 27 4 37 -9 13 -17 13 -29 -3 -90
-8 -33 25 -43 48 -15 9 12 19 27 21 32 2 5 19 7 39 4 29 -5 38 -12 48 -39 22
-61 67 -57 58 5 -4 34 -2 39 20 45 16 4 32 -1 50 -15 51 -40 90 -18 54 31 -16
22 -19 34 -12 47 20 37 38 45 73 33 28 -10 35 -9 46 6 12 16 9 21 -18 45 -43
35 -35 66 18 70 29 2 38 8 40 25 3 17 -3 24 -25 28 -50 12 -53 14 -53 44 0 24
7 34 30 46 32 17 35 22 21 44 -6 10 -20 12 -49 8 -51 -9 -66 7 -50 50 23 60
-22 88 -50 30 -7 -15 -16 -27 -20 -27 -17 1 -33 19 -41 46 -8 33 -47 46 -57
20z m100 -137 c38 -30 56 -71 56 -129 0 -120 -93 -220 -205 -220 -89 0 -125
78 -64 136 41 38 71 87 94 149 30 83 68 104 119 64z"/>
<path d="M1065 1076 c-80 -35 -111 -133 -67 -209 24 -40 93 -71 140 -62 142
26 165 216 32 269 -48 19 -65 19 -105 2z m106 -75 c17 -18 29 -40 29 -56 0
-34 -50 -85 -83 -85 -32 0 -73 33 -79 64 -7 34 17 85 44 96 39 15 58 11 89
-19z"/>
<path d="M1913 940 c-45 -27 -65 -62 -65 -114 0 -115 121 -185 213 -123 90 60
89 187 -3 241 -36 22 -106 20 -145 -4z m136 -66 c29 -37 26 -70 -8 -105 -33
-32 -65 -37 -99 -13 -32 22 -44 58 -31 92 14 37 36 52 80 52 29 0 42 -6 58
-26z"/>
<path d="M1497 774 c-4 -4 -7 -15 -7 -24 0 -20 -46 -44 -55 -30 -9 15 -45 12
-51 -4 -3 -8 -1 -23 5 -34 14 -27 4 -51 -26 -63 -31 -12 -29 -52 3 -57 30 -4
45 -41 27 -68 -12 -18 -11 -23 3 -34 12 -11 20 -11 34 -2 23 14 70 0 70 -22 0
-7 7 -19 15 -26 18 -15 45 2 45 30 0 22 43 34 69 20 28 -14 50 14 32 41 -16
27 -5 58 26 70 30 11 29 52 -2 58 -29 5 -36 21 -29 63 4 29 2 39 -10 44 -9 3
-23 1 -30 -5 -21 -18 -64 -3 -68 22 -3 22 -37 35 -51 21z m91 -130 c12 -14 22
-36 22 -50 0 -34 -51 -84 -85 -84 -33 0 -85 50 -85 82 0 13 7 34 16 46 33 48
92 50 132 6z"/>
</g>
</svg>
