<?xml version="1.0" standalone="no"?>
<!DOCTYPE svg PUBLIC "-//W3C//DTD SVG 20010904//EN"
 "http://www.w3.org/TR/2001/REC-SVG-20010904/DTD/svg10.dtd">
<svg version="1.0" xmlns="http://www.w3.org/2000/svg"
 width="500.000000pt" height="499.000000pt" viewBox="0 0 500.000000 499.000000"
 preserveAspectRatio="xMidYMid meet">

<g transform="translate(0.000000,499.000000) scale(0.100000,-0.100000)"
fill="#000000" stroke="none">
<path d="M3029 4967 c-100 -28 -190 -105 -233 -196 -17 -37 -21 -65 -21 -146
0 -118 16 -162 88 -240 l46 -50 -1338 -1340 c-839 -840 -1355 -1364 -1383
-1405 -203 -290 -243 -652 -109 -971 150 -357 484 -593 872 -616 220 -13 422
44 624 175 54 35 385 359 1415 1388 l1345 1343 50 -46 c67 -62 123 -85 216
-91 179 -11 320 93 365 267 20 81 13 147 -27 232 -28 59 -96 129 -822 855
-701 700 -799 795 -850 818 -70 33 -170 42 -238 23z m182 -206 c58 -38 1542
-1527 1563 -1568 48 -97 -13 -219 -121 -239 -67 -13 -110 11 -221 119 l-103
101 -482 -482 -482 -482 -1155 2 -1154 3 164 162 165 162 100 -99 c55 -55 105
-100 110 -100 6 0 37 27 70 60 l60 60 -103 103 c-56 56 -101 107 -101 112 1 6
33 39 71 75 l69 64 192 -192 c106 -106 197 -192 202 -192 6 0 37 27 70 60 l60
60 -193 193 c-105 106 -192 196 -192 201 0 11 61 79 107 119 l34 30 105 -104
104 -104 60 60 c33 33 60 64 60 70 0 6 -45 55 -100 110 l-100 100 72 72 73 73
196 -196 197 -197 61 58 c34 32 61 63 61 69 0 6 -85 97 -190 201 -104 104
-189 194 -189 200 1 5 33 39 71 75 l69 64 103 -103 104 -104 62 58 c33 32 59
65 58 72 -2 7 -47 57 -101 112 l-98 99 73 71 c39 39 75 71 78 71 3 0 91 -85
195 -190 104 -104 194 -190 200 -190 6 0 37 27 70 60 l59 60 -199 200 -199
200 72 72 73 72 474 -474 475 -475 65 65 65 65 -574 575 c-617 617 -608 607
-592 692 23 123 151 178 257 109z m-251 -2957 c-1515 -1525 -1475 -1487 -1637
-1554 -106 -44 -190 -60 -324 -60 -225 0 -415 78 -573 236 -159 160 -236 347
-236 579 0 141 19 232 73 347 53 113 89 155 359 426 l253 252 1154 0 1155 0
-224 -226z"/>
<path d="M830 1735 c-57 -18 -113 -64 -146 -121 -31 -54 -43 -155 -25 -221 38
-138 208 -226 349 -179 64 22 133 82 163 143 32 67 32 170 0 233 -67 131 -201
188 -341 145z m155 -200 c70 -69 -16 -186 -103 -141 -55 28 -66 102 -22 146
29 29 94 27 125 -5z"/>
<path d="M1860 1741 c-80 -26 -155 -97 -185 -174 -35 -92 -7 -211 66 -285 57
-58 104 -77 194 -77 70 0 87 4 134 30 90 49 139 134 140 240 1 148 -109 264
-258 271 -36 2 -77 0 -91 -5z m127 -193 c12 -6 27 -26 33 -43 18 -55 -16 -109
-78 -121 -27 -6 -37 -1 -68 30 -31 31 -36 41 -30 68 14 73 72 99 143 66z"/>
<path d="M1000 899 c-96 -43 -170 -151 -170 -248 0 -66 28 -140 73 -188 52
-57 105 -84 176 -90 299 -27 418 377 153 514 -78 40 -160 45 -232 12z m149
-174 c82 -42 49 -167 -44 -167 -53 0 -85 33 -85 88 0 35 5 47 31 68 35 30 58
32 98 11z"/>
</g>
</svg>
