<?xml version="1.0" encoding="UTF-8"?>
<svg id="Layer_1" xmlns="http://www.w3.org/2000/svg" viewBox="0 0 445.56 434.18">
  <defs>
    <style>
      .cls-1 {
        fill: #545ac2;
      }

      .cls-2 {
        fill: #938ec3;
      }

      .cls-3 {
        fill: #5257c0;
      }

      .cls-4 {
        fill: #9790c2;
      }
    </style>
  </defs>
  <path class="cls-4" d="M445.55,176.46c-.48,23.27-8.24,43.54-24.91,60.12-26.92,26.77-54.01,53.37-80.68,80.39-7.45,7.55-15.46,7.8-23.54,3.3-11.29-6.27-22.53-12.94-32.7-20.84-21.13-16.41-39.45-35.79-54.81-57.73-5.3-7.57-9.64-15.92-13.54-24.32-3.79-8.18-2.75-15.49,4.47-22.48,26.21-25.36,51.87-51.28,77.76-76.97,17.97-17.83,39.32-27.22,64.96-26.84,33.13.49,65.39,22.99,77.05,54.17,3.77,10.08,6.07,20.37,5.94,31.2h0ZM235.02,195.84c44.92,25.31,79.69,60.34,104.27,105.65-.06.03.3-.05.52-.27,24.78-24.44,49.82-48.64,74.23-73.45,16.93-17.21,23.7-38.65,20.07-62.34-4.57-29.88-21.77-50.7-50.57-59.97-28.7-9.24-54.65-2.5-76.35,18.58-19.95,19.38-39.51,39.17-59.23,58.79-4.45,4.42-8.85,8.89-12.95,13h.01ZM224.34,205.28c-.08,8.6,3.43,14.35,6.86,19.92,16.78,27.24,38.82,49.8,63.96,69.27,8.32,6.45,17.98,11.19,27.18,16.47,1.77,1.02,4.21.86,6.34,1.24.39-.45.77-.89,1.16-1.34-1.97-4.82-3.47-9.91-5.99-14.43-12.14-21.73-28.67-39.95-46.76-56.77-12.67-11.78-25.97-22.89-41.72-30.52-3.18-1.54-6.7-2.36-11.04-3.85h0Z"/>
  <path class="cls-1" d="M112.61,197.65c7.23-9.53,14.01-19.43,21.77-28.5,18.06-21.1,38.34-39.83,62.09-54.48,4.78-2.95,9.96-5.23,15.34-8.01-10.58-10.79-21.05-21.48-31.55-32.14-3.74-3.8-7.53-7.56-11.31-11.31-2.67-2.66-4.01-5.76-1.07-8.74,2.89-2.94,6.08-1.89,8.77.83,17.45,17.66,34.89,35.33,52.35,52.98,4.58,4.63,5.29,10.5,2.78,15.76-4.91,10.29-9.87,20.81-16.56,29.95-20.01,27.4-44.27,50.61-73.02,68.8-5.96,3.77-12.74,6.47-19.45,8.79-6.2,2.14-11.78.63-16.75-4.46-27.47-28.13-55.9-55.37-82.59-84.22C-1.12,116.37-6.51,84.68,7.88,51.52,22.24,18.42,48.78,1.25,85.06.05c20.65-.68,38.88,6.2,54.94,19.03,3.89,3.11,4.91,6.66,2.43,9.25-3.18,3.33-6.07,1.8-9.14-.65-13.28-10.6-28.35-16.62-45.48-16.72-3.44-.02-6.89.76-10.34,1.17-.73-.15-1.5-.52-2.19-.41-10.59,1.72-20.33,5.29-29.58,11.08C18.27,39.94,5.32,75.26,14.54,105.88c3.81,12.65,10.33,23.63,19.89,32.93,13.23,12.87,26.13,26.09,39.11,39.23,6.39,6.47,12.59,13.12,18.96,19.6,4.34,4.42,8.84,8.69,13.69,13.44,2.45-5.12,4.43-9.28,6.42-13.44h0ZM222.75,117.58c-.74-.72-1.47-1.43-2.21-2.15-6.07,2.81-12.43,5.12-18.16,8.51-19.78,11.71-36.54,27.14-52.19,43.81-12.09,12.88-23.4,26.4-31.26,42.39-1.62,3.29-2.44,6.97-3.63,10.47.39.41.77.82,1.16,1.23,3.24-.94,6.92-1.2,9.64-2.94,11.99-7.7,24.39-14.99,35.37-23.98,21.71-17.78,40.87-38.12,55.07-62.6,2.65-4.58,4.17-9.81,6.22-14.74h0Z"/>
  <path class="cls-2" d="M112.61,197.65c-1.99,4.16-3.98,8.32-6.42,13.44-4.86-4.76-9.35-9.03-13.69-13.44-6.37-6.48-12.57-13.14-18.96-19.6-12.98-13.13-25.88-26.35-39.11-39.23-9.56-9.3-16.08-20.28-19.89-32.93-9.22-30.62,3.74-65.94,31.16-83.08,9.26-5.79,18.99-9.36,29.58-11.08.69-.11,1.46.26,2.19.41-4.09,2.79-8.35,5.36-12.23,8.41-26.27,20.62-35.83,47.63-30.37,80.29.24,1.46.33,2.94.49,4.41-3.78.27-6.97,1.47-6.77,5.98.2,4.62,7.82,9.27,12.39,7.8,1.48,1.69,2.96,3.38,4.45,5.08.25,2.1-.31,4.97.86,6.16,10.89,11.12,22.07,21.96,33.17,32.87,5.6,5.89,11.18,11.79,16.81,17.65,5.42,5.65,10.89,11.24,16.34,16.86h0Z"/>
  <path class="cls-1" d="M191.51,346.29c-11.88,0-21.64-9.58-21.81-21.41-.17-11.98,9.72-21.87,21.86-21.87s21.92,9.83,21.77,21.92c-.15,11.87-9.85,21.35-21.82,21.35h0ZM191.22,335.35c6.16.1,10.97-4.38,11.15-10.39.18-5.98-4.47-10.84-10.54-11.01-6.01-.17-10.99,4.46-11.19,10.4-.19,5.87,4.64,10.9,10.58,11h0Z"/>
  <path class="cls-1" d="M221.19,434.17c-11.41-.09-20.86-9.78-20.67-21.19.19-11.31,9.51-20.52,20.82-20.56,11.36-.05,21.07,9.67,20.97,20.98-.1,11.49-9.64,20.87-21.12,20.78h0ZM211.48,412.8c-.27,5.39,3.87,10.04,9.25,10.39,5.54.36,10.51-4.12,10.64-9.59.12-5.23-4.34-10-9.59-10.24-5.26-.25-10.04,4.13-10.3,9.44h0Z"/>
  <path class="cls-1" d="M248.87,339.16c11.24-.04,20.42,8.93,20.53,20.07.11,11.25-9.34,20.78-20.55,20.7-11.03-.08-20.27-9.39-20.32-20.47-.05-11.1,9.13-20.26,20.34-20.3h0ZM249.1,350.13c-5.26-.07-9.56,4.06-9.61,9.23-.05,5.11,4.27,9.54,9.38,9.64,5.08.1,9.46-4.19,9.58-9.39.12-5.17-4.06-9.4-9.34-9.47h0Z"/>
  <path class="cls-1" d="M208.62,246.72c-.08,9.55-7.97,17.38-17.5,17.4-9.74.01-17.69-7.99-17.67-17.79.03-9.83,8.03-17.72,17.82-17.58,9.96.15,17.43,7.88,17.35,17.97ZM191.21,239.69c-3.73,0-6.7,2.82-6.79,6.46-.1,3.92,2.93,7.05,6.77,6.98,3.78-.07,6.49-2.87,6.49-6.7s-2.82-6.74-6.47-6.74h0Z"/>
  <path class="cls-1" d="M160.63,278.26c-.08,9.69-7.77,17.46-17.35,17.53-9.72.07-17.82-7.97-17.82-17.7s7.94-17.76,17.73-17.79c9.6-.03,17.52,8.13,17.44,17.96h0ZM149.73,277.83c-.09-3.69-3.06-6.6-6.71-6.57-3.73.03-6.82,3.42-6.6,7.25.2,3.54,3.47,6.5,7.02,6.34,3.56-.15,6.38-3.3,6.29-7.03h0Z"/>
  <path class="cls-1" d="M135.18,403.29c-9.01.07-15.77-6.56-15.88-15.58-.11-8.85,6.84-16.06,15.52-16.13,8.64-.06,15.87,7.06,16.03,15.77.16,8.72-6.88,15.87-15.67,15.94ZM135.96,381.86c-.71,0-1.42.01-2.12.02-1.2,1.83-3.08,3.53-3.45,5.51-.58,3.09,1.65,5.37,4.62,4.76,1.82-.37,4.39-2.86,4.45-4.47.07-1.89-2.22-3.87-3.49-5.81h0Z"/>
  <path class="cls-3" d="M79.46,163.14c-11.1-10.92-22.28-21.75-33.17-32.87-1.17-1.19-.61-4.07-.86-6.16,3.77-3.87,5.58-3.95,9.44-.12,9.68,9.62,19.41,19.19,28.84,29.05,1.54,1.61,2.84,5.08,2.11,6.79-.72,1.7-4.13,2.26-6.36,3.32h0Z"/>
  <path class="cls-3" d="M40.98,119.02c-4.57,1.46-12.2-3.18-12.39-7.8-.19-4.5,2.99-5.7,6.77-5.98,1.48,1.22,2.96,2.45,4.45,3.66,3.69,3,4.16,6.35,1.17,10.12Z"/>
  <path class="cls-4" d="M283.37,183.77c-1.49-1.28-3.55-2.27-4.16-3.82-.6-1.54-.44-4.33.59-5.4,10.41-10.78,20.95-21.44,31.81-31.77,1.23-1.17,5.15-.88,6.9.21,2.74,1.71,2.78,4.85.34,7.31-10.43,10.53-20.91,21.01-31.45,31.44-.87.86-2.28,1.17-4.03,2.03h0Z"/>
  <path class="cls-4" d="M337.06,129.88c-.76,4.03-7.1,10.67-9.73,9.65-2.18-.85-4.51-3.29-5.19-5.52-.85-2.78,6.01-9.36,8.82-8.55,2.27.66,4.08,2.89,6.1,4.42h0Z"/>
</svg>