<?xml version="1.0" standalone="no"?>
<!DOCTYPE svg PUBLIC "-//W3C//DTD SVG 20010904//EN"
 "http://www.w3.org/TR/2001/REC-SVG-20010904/DTD/svg10.dtd">
<svg version="1.0" xmlns="http://www.w3.org/2000/svg"
 width="713.000000pt" height="565.000000pt" viewBox="0 0 713.000000 565.000000"
 preserveAspectRatio="xMidYMid meet">

<g transform="translate(0.000000,565.000000) scale(0.100000,-0.100000)"
fill="#000000" stroke="none">
<path d="M1015 5458 c-16 -13 -52 -72 -89 -147 l-61 -126 -3 -277 c-2 -152 1
-355 6 -451 9 -160 11 -176 35 -214 39 -61 167 -321 167 -338 0 -8 -16 -52
-35 -98 -43 -104 -60 -157 -74 -226 -6 -29 -25 -88 -42 -130 -27 -66 -33 -95
-40 -218 -6 -85 -6 -204 0 -297 8 -134 12 -162 35 -211 14 -32 26 -71 26 -88
0 -76 -87 -159 -203 -192 -76 -22 -149 -83 -202 -170 -34 -56 -103 -233 -114
-291 -5 -27 -14 -103 -21 -169 -27 -291 -32 -333 -47 -390 -28 -108 -19 -166
30 -193 29 -15 74 -17 500 -17 l468 1 103 106 c90 92 110 119 154 209 62 125
117 283 134 380 8 54 9 92 0 158 -22 166 -95 407 -151 503 -12 20 -31 62 -42
95 -11 32 -39 91 -61 132 -22 40 -51 103 -64 140 -14 36 -43 95 -65 132 -21
36 -46 90 -55 120 -8 29 -34 85 -56 122 -30 52 -42 86 -50 140 -13 89 -4 336
12 367 21 40 73 91 112 111 63 32 159 39 584 39 599 0 977 -23 1366 -85 211
-33 257 -57 277 -145 20 -91 51 -1042 51 -1610 1 -458 12 -714 34 -765 23 -54
66 -115 81 -115 20 0 127 122 158 178 47 86 50 185 43 1182 -4 492 -11 1162
-16 1487 l-9 593 -52 97 c-115 215 -230 352 -337 401 -68 31 -115 35 -622 56
-871 37 -1453 72 -1588 96 -60 11 -68 17 -112 88 l-32 52 -53 0 c-39 0 -59 -6
-80 -22z"/>
<path d="M2383 2945 c-35 -8 -67 -16 -73 -20 -16 -10 -30 -75 -36 -175 -5 -76
-4 -102 9 -126 32 -62 155 -154 207 -154 60 0 189 102 211 167 15 46 6 165
-16 218 -41 95 -140 125 -302 90z"/>
<path d="M5925 2403 c-20 -19 -19 -58 2 -78 13 -13 28 -15 72 -11 31 4 63 2
71 -3 13 -9 15 -77 16 -505 0 -389 3 -498 14 -510 7 -9 27 -16 46 -16 38 0 59
27 51 66 -6 32 7 30 32 -5 55 -77 247 -103 362 -49 148 68 228 218 229 425 0
153 -41 264 -125 342 -60 55 -119 81 -203 88 -96 8 -169 -15 -227 -71 -25 -23
-46 -42 -48 -40 -1 1 1 83 5 181 5 114 4 181 -3 188 -5 5 -70 10 -145 11 -106
1 -138 -1 -149 -13z m596 -374 c181 -61 229 -440 75 -594 -50 -49 -113 -70
-186 -62 -66 8 -104 30 -139 78 -39 53 -51 115 -51 263 0 161 14 211 77 265
65 58 145 76 224 50z"/>
<path d="M4010 2382 c-18 -15 -21 -24 -16 -50 9 -37 30 -46 94 -38 60 8 93 -9
109 -54 15 -44 18 -738 3 -789 -14 -49 -35 -60 -117 -61 -61 0 -74 -3 -83 -19
-14 -27 -13 -44 4 -67 14 -18 28 -19 463 -16 371 3 452 6 471 18 21 14 23 21
21 112 0 53 2 145 6 203 7 102 7 107 -13 118 -29 16 -77 14 -92 -4 -8 -9 -11
-52 -11 -127 2 -204 -7 -211 -257 -216 -187 -4 -228 3 -238 42 -2 11 -3 203
-2 424 l3 404 25 20 c21 17 33 19 82 14 35 -4 65 -3 78 4 26 14 26 61 0 85
-18 17 -29 17 -147 7 -87 -8 -149 -9 -193 -2 -103 15 -165 13 -190 -8z"/>
<path d="M5314 2130 c-66 -21 -144 -82 -169 -131 -20 -38 -19 -109 3 -135 38
-47 93 -57 136 -23 31 24 36 81 10 110 -23 25 -12 44 38 70 50 26 157 31 198
10 49 -26 79 -63 85 -105 13 -94 -27 -136 -147 -154 -40 -7 -107 -17 -148 -23
-170 -26 -258 -118 -248 -259 8 -108 69 -182 178 -214 119 -35 266 -7 337 64
l40 39 24 -37 c31 -48 80 -72 147 -72 124 0 171 61 172 225 0 84 -16 115 -60
115 -40 0 -50 -23 -50 -117 0 -87 -16 -123 -53 -123 -28 0 -41 9 -52 35 -5 11
-11 144 -14 295 -6 255 -8 278 -28 315 -28 53 -57 79 -118 106 -71 32 -198 36
-281 9z m286 -613 c-28 -96 -127 -154 -246 -144 -110 8 -168 77 -144 168 18
66 70 93 211 109 56 7 112 20 139 33 l45 22 3 -75 c2 -41 -2 -92 -8 -113z"/>
<path d="M740 1019 c-19 -4 -56 -6 -82 -2 -26 3 -54 3 -62 0 -25 -10 -7 -37
23 -37 41 0 51 -17 51 -87 l0 -63 -105 0 -105 0 0 63 c0 70 10 87 52 87 21 0
28 5 28 19 0 18 -7 20 -107 18 -89 -2 -108 -5 -108 -17 0 -9 11 -16 30 -18 17
-2 36 -11 43 -20 15 -20 17 -294 2 -323 -8 -13 -21 -19 -46 -19 -28 0 -35 -3
-32 -17 3 -16 17 -18 110 -19 75 0 109 3 112 12 7 17 -3 24 -34 24 -41 0 -50
17 -50 97 l0 73 105 0 105 0 0 -66 c0 -81 -11 -104 -50 -104 -31 0 -43 -10
-32 -26 9 -13 205 -14 214 0 11 16 -1 26 -32 26 -19 0 -33 7 -40 19 -5 11 -10
83 -10 161 0 78 5 150 10 161 7 12 21 19 40 19 16 0 32 5 35 10 7 11 -12 41
-24 39 -3 -1 -22 -5 -41 -10z"/>
<path d="M1540 1010 c0 -15 7 -20 29 -20 17 0 31 -6 35 -16 8 -21 8 -234 0
-301 -6 -50 -8 -53 -35 -53 -22 0 -29 -5 -29 -20 0 -19 7 -20 90 -20 83 0 90
1 90 20 0 16 -7 20 -30 20 l-30 0 0 205 0 205 -60 0 c-53 0 -60 -2 -60 -20z"/>
<path d="M2000 1010 c0 -15 6 -20 29 -20 38 0 41 -13 41 -185 0 -172 -3 -185
-41 -185 -22 0 -29 -5 -29 -19 0 -18 8 -20 90 -20 82 0 90 2 90 20 0 14 -7 19
-30 19 l-30 0 0 99 c0 116 3 127 41 146 38 20 72 19 100 -3 19 -16 23 -31 27
-105 6 -116 0 -137 -39 -137 -24 0 -30 -4 -27 -17 3 -15 16 -18 91 -20 81 -2
87 -1 87 17 0 16 -7 20 -30 20 l-30 0 0 99 c0 62 -5 111 -14 132 -26 62 -106
87 -170 54 -15 -8 -31 -15 -35 -15 -3 0 -6 30 -6 67 l0 68 -57 3 c-53 3 -58 1
-58 -18z"/>
<path d="M3947 1014 c-13 -13 7 -34 32 -34 47 0 51 -12 51 -175 0 -166 -5
-182 -55 -187 -19 -2 -30 -9 -30 -18 0 -24 288 -22 332 3 103 56 135 234 61
344 -41 60 -85 73 -244 73 -78 0 -143 -3 -147 -6z m293 -52 c23 -11 43 -33 58
-62 46 -92 17 -225 -58 -262 -40 -21 -130 -24 -148 -6 -17 17 -17 319 0 336
18 18 108 15 148 -6z"/>
<path d="M5151 1006 c-21 -25 -4 -58 27 -54 23 2 27 8 27 33 0 23 -5 31 -21
33 -11 2 -26 -4 -33 -12z"/>
<path d="M5680 1005 c-6 -8 -9 -23 -5 -35 10 -31 59 -24 63 9 6 37 -34 55 -58
26z"/>
<path d="M1796 995 c-3 -9 -6 -32 -6 -51 0 -26 -4 -34 -18 -34 -10 0 -23 -5
-29 -11 -17 -17 -4 -39 23 -39 24 0 24 -1 24 -104 0 -56 5 -117 10 -133 21
-59 103 -72 151 -23 27 26 30 35 27 82 -4 73 -29 73 -43 0 -13 -71 -39 -88
-75 -52 -17 17 -20 33 -20 124 l0 105 53 3 c44 3 52 6 52 23 0 17 -8 20 -52
23 l-52 3 -3 47 c-2 34 -8 48 -19 50 -9 2 -19 -4 -23 -13z"/>
<path d="M930 902 c-53 -29 -80 -84 -80 -162 0 -75 21 -119 72 -150 81 -49
198 -2 210 85 5 32 -40 33 -48 1 -9 -38 -41 -61 -85 -61 -49 0 -87 35 -96 88
l-6 37 123 0 123 0 -5 51 c-10 102 -118 160 -208 111z m105 -37 c34 -14 62
-56 49 -76 -3 -5 -43 -9 -90 -9 -81 0 -84 1 -84 23 0 31 41 66 88 76 1 1 18
-6 37 -14z"/>
<path d="M1252 901 c-42 -27 -58 -61 -42 -90 7 -15 19 -21 33 -19 18 2 22 10
23 37 0 37 16 49 65 50 36 1 62 -21 62 -54 0 -38 -21 -51 -95 -59 -48 -6 -67
-13 -89 -36 -47 -47 -37 -115 21 -145 41 -21 99 -19 139 6 l33 20 15 -20 c9
-14 25 -21 48 -21 47 0 65 22 65 81 0 42 -3 49 -19 49 -16 0 -20 -8 -23 -42
-2 -30 -8 -44 -19 -46 -23 -4 -29 26 -29 145 0 92 -2 104 -23 129 -32 37 -116
45 -165 15z m138 -200 c0 -52 -25 -81 -76 -88 -34 -4 -46 -1 -63 16 -11 11
-21 28 -21 36 0 26 38 55 73 56 17 0 41 4 52 9 32 14 35 12 35 -29z"/>
<path d="M2520 901 c-73 -38 -105 -166 -62 -251 51 -101 193 -106 243 -8 23
45 19 68 -11 68 -13 0 -20 -7 -20 -19 0 -11 -11 -32 -24 -47 -32 -38 -86 -39
-123 -1 -22 22 -28 37 -31 89 -3 53 0 68 20 97 26 40 72 56 112 41 25 -9 38
-50 16 -50 -5 0 -10 -11 -10 -24 0 -31 37 -42 62 -19 37 33 15 99 -42 128 -39
20 -88 19 -130 -4z"/>
<path d="M2832 900 c-42 -26 -58 -60 -42 -89 7 -15 19 -21 33 -19 18 2 22 10
23 37 0 41 23 55 72 47 40 -6 52 -19 52 -58 0 -34 -17 -43 -94 -53 -75 -9
-116 -44 -116 -99 0 -78 99 -121 181 -78 35 18 37 18 59 0 12 -10 35 -18 50
-18 39 0 60 28 60 83 0 40 -3 47 -20 47 -17 0 -20 -7 -20 -40 0 -39 -20 -63
-38 -45 -4 3 -8 59 -10 123 -3 126 -13 155 -58 172 -41 16 -97 11 -132 -10z
m138 -199 c0 -55 -25 -82 -82 -88 -42 -5 -48 -3 -63 21 -26 39 -8 73 42 81 30
6 85 19 101 24 1 1 2 -17 2 -38z"/>
<path d="M3262 903 c-18 -13 -25 -14 -31 -4 -12 19 -105 10 -109 -11 -2 -12 5
-17 30 -20 l33 -3 3 -122 3 -123 -36 0 c-29 0 -36 -3 -33 -17 3 -16 15 -18 93
-18 78 0 90 2 93 18 3 13 -3 17 -27 17 -39 0 -45 21 -39 137 4 74 8 89 27 105
28 22 59 23 89 2 27 -19 28 -40 2 -47 -26 -7 -26 -44 0 -52 47 -15 82 42 59
97 -22 53 -107 75 -157 41z"/>
<path d="M3536 896 c-22 -13 -47 -39 -57 -57 -23 -43 -25 -148 -4 -189 44 -85
161 -106 233 -41 39 36 46 91 12 91 -11 0 -20 -6 -20 -14 0 -8 -11 -27 -24
-43 -51 -60 -149 -24 -163 60 l-6 37 123 0 123 0 -5 48 c-11 112 -117 166
-212 108z m136 -44 c10 -10 19 -28 20 -42 3 -25 2 -25 -81 -28 -46 -2 -87 1
-92 5 -13 14 10 52 43 73 37 23 81 19 110 -8z"/>
<path d="M4522 904 c-51 -26 -82 -88 -82 -163 0 -35 6 -74 15 -91 45 -87 163
-104 238 -35 34 32 38 85 7 85 -12 0 -22 -9 -26 -24 -10 -40 -41 -61 -87 -60
-34 1 -46 8 -69 35 -16 19 -28 45 -28 61 l0 27 118 3 117 3 -1 48 c0 41 -5 53
-36 84 -29 29 -45 36 -85 40 -32 2 -59 -2 -81 -13z m130 -52 c10 -9 19 -28 20
-42 3 -25 2 -25 -84 -28 -87 -3 -88 -2 -88 21 0 62 105 95 152 49z"/>
<path d="M4864 906 c-53 -24 -78 -71 -82 -151 -4 -83 15 -127 67 -162 66 -45
162 -17 195 55 10 22 15 45 12 51 -13 21 -37 11 -51 -22 -19 -45 -40 -61 -81
-61 -56 0 -87 39 -92 116 -2 50 1 70 17 96 34 53 89 63 134 24 16 -15 16 -16
-3 -34 -36 -34 3 -71 46 -43 33 22 32 66 -4 106 -23 26 -37 32 -78 35 -29 3
-62 -1 -80 -10z"/>
<path d="M5530 911 c0 -6 -18 -8 -49 -4 -27 3 -61 3 -76 -1 -40 -10 -75 -53
-75 -93 0 -52 33 -78 119 -93 81 -13 99 -31 79 -75 -13 -29 -44 -40 -95 -32
-46 8 -73 33 -73 69 0 22 -5 28 -20 28 -19 0 -21 -5 -18 -72 2 -60 6 -73 21
-76 11 -2 17 3 17 13 0 13 5 15 18 10 9 -4 43 -10 74 -13 51 -4 62 -1 92 22
42 31 53 73 32 114 -16 32 -46 45 -124 57 -70 11 -96 57 -50 89 48 34 114 11
124 -41 5 -24 11 -33 23 -31 25 5 24 131 -1 136 -10 2 -18 -1 -18 -7z"/>
<path d="M5920 902 c-57 -28 -80 -73 -80 -157 0 -58 4 -79 23 -106 31 -47 81
-71 138 -66 91 8 146 83 136 188 -3 32 -14 74 -24 91 -22 39 -75 68 -123 68
-19 0 -51 -8 -70 -18z m132 -49 c35 -31 44 -109 22 -185 -3 -9 -21 -27 -39
-38 -42 -26 -82 -20 -116 16 -21 22 -24 36 -24 99 0 77 14 106 60 126 27 11
74 3 97 -18z"/>
<path d="M6350 913 c-8 -3 -22 -12 -32 -20 -14 -13 -17 -12 -25 2 -13 23 -106
17 -111 -7 -2 -12 5 -17 30 -20 l33 -3 0 -120 0 -120 -30 -5 c-18 -3 -30 -11
-30 -20 0 -12 17 -15 90 -15 73 0 90 3 90 15 0 9 -12 17 -30 20 -30 5 -30 5
-33 82 -4 99 10 151 43 166 37 17 69 15 96 -7 21 -17 24 -29 28 -105 4 -117
-1 -136 -40 -136 -24 0 -30 -4 -27 -17 3 -15 17 -18 91 -21 82 -3 87 -2 87 18
0 16 -6 20 -30 20 l-30 0 0 100 c0 117 -14 161 -59 184 -30 16 -82 20 -111 9z"/>
<path d="M6820 912 c0 -6 -23 -8 -58 -5 -64 6 -113 -11 -132 -46 -16 -31 -12
-86 8 -103 21 -18 77 -38 108 -38 68 0 98 -46 58 -87 -22 -22 -32 -25 -70 -20
-54 6 -84 30 -84 69 0 21 -5 28 -20 28 -18 0 -20 -7 -20 -75 0 -68 2 -75 20
-75 12 0 20 7 20 16 0 13 5 14 23 8 12 -4 50 -8 84 -8 51 -1 66 3 87 23 33 31
41 72 22 109 -16 32 -46 45 -124 57 -69 11 -91 46 -52 85 22 22 60 26 93 9 28
-15 37 -28 37 -57 0 -17 5 -23 18 -20 14 3 17 14 17 68 0 54 -3 65 -17 68 -10
2 -18 -1 -18 -6z"/>
<path d="M5097 903 c-16 -16 -5 -32 26 -35 l32 -3 0 -120 0 -120 -30 -5 c-18
-3 -30 -11 -30 -20 0 -12 17 -15 90 -15 76 0 90 3 93 17 2 12 -5 17 -30 20
l-33 3 -3 143 -3 142 -53 0 c-29 0 -56 -3 -59 -7z"/>
<path d="M5627 903 c-16 -16 -5 -32 26 -35 l32 -3 0 -120 0 -120 -30 -5 c-18
-3 -30 -11 -30 -20 0 -12 17 -15 90 -15 73 0 90 3 90 15 0 9 -12 17 -30 20
l-30 5 -3 143 -3 142 -53 0 c-29 0 -56 -3 -59 -7z"/>
<path d="M120 370 c0 -5 7 -10 15 -10 23 0 21 -128 -2 -146 -16 -12 -13 -13
27 -13 35 0 41 2 28 10 -15 8 -18 23 -17 77 l0 67 27 -74 c15 -41 32 -76 39
-78 7 -3 21 27 37 74 l25 78 0 -72 c1 -60 -2 -72 -16 -76 -10 -3 5 -5 32 -5
39 -1 45 1 28 8 -21 8 -23 16 -23 79 0 62 2 69 23 76 21 7 21 8 -6 12 -45 7
-53 -1 -77 -79 l-23 -73 -24 78 c-24 77 -24 77 -59 77 -18 0 -34 -4 -34 -10z"/>
<path d="M850 365 c0 -8 5 -15 10 -15 6 0 10 7 10 15 0 8 -4 15 -10 15 -5 0
-10 -7 -10 -15z"/>
<path d="M1255 354 c-19 -17 -25 -29 -17 -32 15 -5 17 -102 2 -102 -5 0 -10
-4 -10 -10 0 -5 16 -10 35 -10 19 0 35 5 35 10 0 6 -6 10 -14 10 -11 0 -14 12
-13 48 2 45 3 47 35 50 l32 3 0 -55 c0 -65 -3 -64 130 -65 82 -1 93 1 78 13
-14 10 -18 29 -18 90 l0 76 -27 0 c-25 -1 -26 -2 -10 -14 23 -18 25 -141 2
-150 -33 -12 -45 4 -45 65 0 58 -1 59 -27 59 -25 -1 -26 -2 -10 -14 35 -27 12
-112 -29 -104 -16 3 -20 13 -22 61 l-3 57 -39 0 c-23 0 -40 5 -40 11 0 7 10 9
26 5 19 -5 25 -3 22 6 -8 23 -44 19 -73 -8z"/>
<path d="M1710 370 c0 -5 7 -10 15 -10 12 0 15 -14 15 -70 0 -56 -3 -70 -15
-70 -8 0 -15 -4 -15 -10 0 -6 32 -10 75 -10 l75 0 0 41 c0 24 -4 38 -10 34 -5
-3 -10 -17 -10 -31 0 -21 -4 -24 -40 -24 -39 0 -40 1 -40 35 0 28 4 35 20 35
13 0 20 -7 20 -20 0 -11 4 -20 8 -20 12 0 14 88 2 95 -5 3 -10 -3 -10 -14 0
-14 -6 -21 -20 -21 -30 0 -28 46 3 52 39 7 57 -2 57 -28 0 -13 5 -24 10 -24 6
0 10 16 10 35 l0 35 -75 0 c-43 0 -75 -4 -75 -10z"/>
<path d="M2210 365 c0 -8 5 -15 10 -15 6 0 10 7 10 15 0 8 -4 15 -10 15 -5 0
-10 -7 -10 -15z"/>
<path d="M2413 366 c13 -10 17 -28 17 -76 0 -48 -4 -66 -17 -76 -16 -12 -13
-13 27 -13 40 0 43 1 28 13 -21 15 -24 76 -6 94 7 7 22 12 35 12 21 0 23 -4
23 -50 0 -27 -4 -50 -10 -50 -5 0 -10 -4 -10 -10 0 -6 45 -10 115 -10 70 0
115 4 115 10 0 6 -7 10 -15 10 -10 0 -15 10 -15 33 0 41 20 70 46 65 15 -2 20
-13 22 -51 2 -28 -1 -47 -7 -47 -6 0 -11 -4 -11 -10 0 -5 17 -10 38 -10 33 1
35 2 20 14 -13 9 -18 27 -18 58 0 25 -6 50 -12 56 -16 12 -118 13 -118 1 0 -5
5 -9 10 -9 17 0 12 -97 -5 -104 -33 -12 -45 4 -45 65 0 52 -2 59 -20 59 -11 0
-20 -4 -20 -10 0 -5 5 -10 10 -10 17 0 12 -97 -5 -104 -31 -12 -45 5 -45 54 0
57 -17 75 -60 66 -27 -5 -30 -3 -30 19 0 21 -5 25 -27 25 -25 -1 -26 -2 -10
-14z"/>
<path d="M2600 365 c0 -8 5 -15 10 -15 6 0 10 7 10 15 0 8 -4 15 -10 15 -5 0
-10 -7 -10 -15z"/>
<path d="M3081 371 c-9 -6 -12 -18 -7 -36 5 -21 2 -31 -14 -42 -45 -31 -8
-102 47 -89 34 8 39 8 81 0 20 -4 32 -2 32 5 0 6 -11 11 -25 11 -34 0 -39 18
-20 64 16 37 43 47 53 17 3 -10 -2 -11 -18 -6 -16 5 -21 3 -18 -6 7 -20 24
-21 42 -4 20 20 5 55 -24 55 -18 0 -52 -38 -62 -70 -4 -11 -8 -9 -17 8 -10 20
-10 27 3 41 20 22 20 47 0 55 -21 8 -36 7 -53 -3z m49 -25 c0 -19 -27 -28 -33
-11 -7 15 1 25 20 25 7 0 13 -6 13 -14z m-16 -81 c20 -30 14 -45 -19 -45 -28
0 -43 34 -25 55 17 21 25 19 44 -10z"/>
<path d="M3343 366 c13 -10 17 -28 17 -76 0 -48 -4 -66 -17 -76 -16 -12 -10
-13 43 -14 85 0 114 23 114 90 0 67 -29 90 -114 90 -53 -1 -59 -2 -43 -14z
m121 -28 c20 -29 20 -82 0 -102 -8 -9 -31 -16 -50 -16 l-34 0 0 70 0 70 34 0
c25 0 39 -7 50 -22z"/>
<path d="M3540 365 c0 -8 5 -15 10 -15 6 0 10 7 10 15 0 8 -4 15 -10 15 -5 0
-10 -7 -10 -15z"/>
<path d="M4560 369 c0 -5 5 -7 10 -4 6 4 10 -22 10 -69 0 -44 -4 -76 -10 -76
-5 0 -10 -4 -10 -10 0 -5 17 -10 38 -10 33 1 35 2 20 14 -14 11 -18 29 -18 90
0 69 -2 76 -20 76 -11 0 -20 -5 -20 -11z"/>
<path d="M4863 366 c9 -7 17 -21 17 -32 0 -14 -3 -15 -12 -6 -33 33 -88 -4
-88 -60 0 -44 29 -66 89 -66 28 0 51 4 51 9 0 5 -4 9 -10 9 -6 0 -10 33 -10
80 l0 80 -27 0 c-25 -1 -26 -2 -10 -14z m5 -58 c7 -7 12 -24 12 -38 0 -48 -49
-69 -70 -31 -21 40 -6 81 30 81 9 0 21 -5 28 -12z"/>
<path d="M5075 358 c-16 -59 -49 -134 -63 -145 -13 -11 -7 -13 34 -13 34 0 44
3 34 9 -8 6 -18 7 -22 5 -9 -6 -10 8 -2 30 4 10 18 16 39 16 21 0 35 -6 39
-16 10 -25 7 -32 -11 -37 -10 -3 21 -5 70 -6 80 -1 109 8 72 23 -11 4 -15 21
-15 66 0 45 4 62 15 66 28 11 15 24 -25 24 -22 0 -40 -4 -40 -10 0 -5 7 -10
15 -10 12 0 15 -14 15 -69 0 -61 -2 -69 -21 -74 -22 -6 -59 23 -59 47 0 26
-43 116 -56 116 -7 0 -16 -10 -19 -22z m39 -55 c6 -20 4 -23 -17 -23 -24 0
-25 1 -14 35 11 36 17 34 31 -12z"/>
<path d="M5370 370 c0 -5 7 -10 15 -10 12 0 15 -14 15 -70 0 -56 -3 -70 -15
-70 -8 0 -15 -4 -15 -10 0 -5 21 -10 46 -10 27 0 43 4 39 10 -3 6 -13 10 -21
10 -9 0 -14 11 -14 30 0 23 4 30 20 30 14 0 20 -7 20 -21 0 -11 4 -18 8 -15
12 7 12 96 1 96 -5 0 -9 -9 -9 -20 0 -13 -7 -20 -20 -20 -16 0 -20 7 -20 30 0
28 2 30 40 30 38 0 40 -2 40 -31 0 -17 4 -28 10 -24 6 3 10 22 10 41 l0 34
-75 0 c-43 0 -75 -4 -75 -10z"/>
<path d="M5880 370 c0 -5 7 -10 15 -10 24 0 21 -135 -2 -149 -14 -8 -8 -10 27
-10 35 0 41 2 28 10 -15 8 -18 23 -17 77 l0 67 27 -74 c15 -41 32 -76 39 -78
7 -3 21 27 37 74 l25 78 0 -72 c1 -60 -2 -72 -16 -76 -10 -3 5 -5 32 -5 39 -1
45 1 28 8 -21 8 -23 16 -23 79 0 62 2 69 23 76 21 7 21 8 -6 12 -45 7 -53 -1
-77 -79 l-23 -73 -24 78 c-24 77 -24 77 -59 77 -18 0 -34 -4 -34 -10z"/>
<path d="M6363 366 c25 -20 21 -33 -10 -29 -38 6 -62 -15 -69 -58 -5 -28 -2
-41 13 -56 17 -17 35 -20 116 -22 60 -1 97 2 97 9 0 5 -7 10 -15 10 -12 0 -15
13 -15 60 0 53 -2 60 -20 60 -11 0 -20 -4 -20 -10 0 -5 5 -10 10 -10 17 0 12
-97 -5 -104 -36 -13 -45 3 -45 85 l0 79 -27 0 c-25 -1 -26 -2 -10 -14z m5 -58
c7 -7 12 -24 12 -38 0 -51 -52 -69 -72 -25 -22 49 25 98 60 63z"/>
<path d="M6460 365 c0 -8 5 -15 10 -15 6 0 10 7 10 15 0 8 -4 15 -10 15 -5 0
-10 -7 -10 -15z"/>
<path d="M6670 365 c0 -8 5 -15 10 -15 6 0 10 7 10 15 0 8 -4 15 -10 15 -5 0
-10 -7 -10 -15z"/>
<path d="M1165 350 c-3 -5 -14 -10 -23 -10 -27 0 -43 -15 -46 -41 -1 -13 -6
-32 -10 -42 -5 -10 -3 -23 4 -32 9 -10 9 -15 1 -15 -19 0 -12 -39 8 -50 44
-23 111 -5 111 30 0 24 -15 33 -64 40 -22 3 -41 10 -43 17 -3 8 6 10 29 7 54
-8 70 16 52 76 -7 23 -6 24 10 11 18 -15 32 -9 21 8 -8 14 -42 14 -50 1z m5
-55 c0 -18 -5 -25 -19 -25 -11 0 -23 5 -26 10 -11 18 3 40 25 40 15 0 20 -7
20 -25z m15 -105 c0 -18 -62 -27 -77 -12 -18 18 3 33 40 30 25 -2 37 -8 37
-18z"/>
<path d="M2915 350 c-3 -5 -14 -10 -24 -10 -23 0 -55 -35 -46 -50 4 -6 3 -16
-2 -23 -5 -7 -10 -31 -11 -54 -1 -48 15 -63 65 -63 72 0 84 64 15 75 -52 9
-62 13 -62 24 0 6 13 8 30 5 45 -9 63 11 56 61 -5 36 -4 38 8 22 9 -12 16 -14
21 -8 9 16 -3 31 -25 31 -10 0 -22 -4 -25 -10z m3 -53 c4 -20 -25 -34 -40 -19
-15 15 -1 44 19 40 10 -2 19 -11 21 -21z m17 -107 c0 -18 -62 -27 -77 -12 -18
18 3 33 40 30 25 -2 37 -8 37 -18z"/>
<path d="M392 320 c-43 -40 -15 -120 41 -120 26 0 65 35 53 48 -4 4 -13 -1
-20 -11 -17 -23 -53 -22 -66 2 -15 30 -14 31 40 31 42 0 50 3 50 18 0 24 -31
52 -56 52 -11 0 -30 -9 -42 -20z m76 -17 c2 -9 -8 -13 -32 -13 -34 0 -44 8
-29 24 11 11 56 2 61 -11z"/>
<path d="M532 328 c-15 -15 -16 -38 -2 -38 6 0 13 7 16 15 8 20 40 19 48 0 6
-16 1 -19 -47 -29 -32 -7 -45 -31 -30 -55 8 -13 31 -16 112 -18 60 -1 101 2
101 7 0 6 -7 10 -15 10 -10 0 -15 10 -15 33 0 41 20 70 46 65 15 -2 20 -13 22
-51 2 -28 -1 -47 -7 -47 -6 0 -11 -4 -11 -10 0 -6 46 -10 118 -10 99 1 114 3
100 14 -36 27 -13 112 28 104 15 -2 20 -13 22 -51 2 -28 -1 -47 -7 -47 -6 0
-11 -4 -11 -10 0 -5 17 -10 38 -10 33 1 35 2 20 14 -13 9 -18 27 -18 58 0 25
-6 50 -12 56 -18 14 -123 13 -109 -1 15 -15 14 -104 -1 -110 -35 -11 -49 5
-48 52 3 70 2 71 -27 71 -25 -1 -26 -2 -10 -14 22 -17 24 -101 2 -110 -31 -12
-45 5 -45 54 0 26 -6 52 -12 58 -16 12 -118 13 -118 1 0 -5 5 -9 10 -9 17 0
12 -97 -5 -104 -10 -4 -15 1 -15 14 0 11 -5 20 -11 20 -5 0 -8 -4 -4 -9 3 -5
1 -12 -5 -16 -6 -4 -10 10 -10 35 0 23 -5 50 -10 61 -12 22 -59 26 -78 7z m58
-89 c-14 -25 -63 -27 -58 -2 3 16 45 34 61 26 4 -2 2 -13 -3 -24z"/>
<path d="M1890 329 c0 -5 5 -9 10 -9 6 0 10 -22 10 -50 0 -27 -4 -50 -10 -50
-5 0 -10 -4 -10 -10 0 -5 16 -10 35 -10 19 0 35 5 35 10 0 6 -7 10 -15 10 -10
0 -15 10 -15 33 0 41 20 70 46 66 15 -3 20 -14 22 -47 2 -24 -2 -50 -9 -58
-10 -12 0 -14 65 -14 44 0 76 4 76 10 0 5 -5 9 -12 7 -16 -3 -21 27 -13 70 5
28 10 34 28 31 15 -2 21 -9 19 -20 -4 -22 16 -24 24 -3 11 27 -14 43 -66 43
-28 0 -50 -4 -50 -9 0 -5 5 -9 10 -9 17 0 12 -97 -5 -104 -33 -12 -45 4 -45
60 0 36 -4 54 -12 55 -58 7 -118 6 -118 -2z"/>
<path d="M2198 328 c14 -14 16 -108 2 -108 -5 0 -10 -4 -10 -10 0 -5 16 -10
35 -10 36 0 47 13 19 24 -12 5 -15 18 -12 61 3 53 2 55 -21 55 -20 0 -22 -3
-13 -12z"/>
<path d="M2290 320 c-40 -40 -12 -120 43 -120 29 0 47 18 46 44 0 20 -1 20
-16 -1 -34 -50 -90 -3 -65 53 14 30 59 32 54 2 -2 -11 3 -18 13 -18 22 0 19
37 -4 50 -29 15 -49 12 -71 -10z"/>
<path d="M3520 330 c0 -5 5 -10 10 -10 6 0 10 -22 10 -50 0 -27 -4 -50 -10
-50 -5 0 -10 -4 -10 -10 0 -5 16 -10 35 -10 19 0 35 5 35 10 0 6 -7 10 -15 10
-12 0 -15 13 -15 60 0 53 -2 60 -20 60 -11 0 -20 -4 -20 -10z"/>
<path d="M3623 333 c-7 -2 -13 -18 -13 -34 0 -23 5 -30 28 -35 47 -10 54 -14
50 -27 -3 -6 -17 -13 -32 -15 -21 -3 -29 1 -33 17 -8 31 -23 26 -23 -7 0 -26
3 -29 36 -30 78 -3 103 52 34 74 -19 7 -35 18 -35 25 0 21 35 23 50 2 14 -17
14 -16 15 7 0 22 -5 26 -32 27 -18 1 -39 -1 -45 -4z"/>
<path d="M3760 320 c-41 -41 -12 -120 43 -120 33 0 57 30 57 72 0 61 -58 90
-100 48z m75 -50 c0 -42 -2 -45 -27 -48 -22 -3 -30 2 -40 22 -17 39 3 78 40
74 25 -3 27 -6 27 -48z"/>
<path d="M3880 327 c9 -7 25 -37 37 -67 11 -30 26 -55 33 -55 6 0 23 27 36 59
13 33 30 64 37 68 7 4 -5 8 -28 8 -27 0 -36 -3 -26 -9 12 -8 12 -16 1 -56 -14
-51 -21 -49 -40 9 -10 32 -10 40 1 47 9 6 0 9 -26 9 -33 -1 -37 -3 -25 -13z"/>
<path d="M4067 327 c-10 -6 -20 -28 -23 -48 -5 -29 -2 -41 15 -58 11 -11 30
-21 40 -21 24 0 69 36 58 47 -5 4 -14 0 -21 -10 -17 -23 -53 -22 -66 2 -15 30
-14 31 40 31 43 0 50 3 50 19 0 43 -56 66 -93 38z m57 -13 c28 -11 17 -24 -19
-24 -33 0 -43 8 -28 23 8 9 27 9 47 1z"/>
<path d="M4180 329 c0 -5 5 -9 10 -9 6 0 10 -22 10 -50 0 -27 -4 -50 -10 -50
-5 0 -10 -4 -10 -10 0 -5 17 -10 38 -10 33 1 35 2 20 14 -35 26 -12 117 25
103 10 -4 14 -13 11 -22 -3 -8 -1 -15 5 -15 17 0 25 28 12 44 -13 15 -111 19
-111 5z"/>
<path d="M4312 326 c10 -7 27 -38 39 -69 18 -46 19 -60 9 -72 -16 -19 -40 -19
-40 0 0 18 -16 20 -26 3 -10 -16 26 -39 50 -32 28 9 42 29 67 94 11 30 28 63
36 73 15 16 14 17 -21 17 -33 0 -35 -2 -24 -19 9 -14 8 -27 -4 -56 l-15 -38
-16 46 c-9 26 -12 47 -6 47 5 0 9 5 9 10 0 6 -17 10 -37 10 -34 -1 -36 -2 -21
-14z"/>
<path d="M4660 320 c-39 -39 -12 -120 39 -120 23 0 69 35 59 45 -4 4 -14 0
-23 -9 -22 -22 -52 -20 -65 3 -15 30 -14 31 40 31 42 0 50 3 50 18 0 25 -31
52 -58 52 -12 0 -31 -9 -42 -20z m64 -6 c28 -11 17 -24 -19 -24 -33 0 -43 8
-28 23 8 9 27 9 47 1z"/>
<path d="M5560 320 c-41 -41 -12 -120 43 -120 33 0 57 30 57 72 0 61 -58 90
-100 48z m75 -50 c0 -42 -2 -45 -27 -48 -22 -3 -30 2 -40 22 -17 39 3 78 40
74 25 -3 27 -6 27 -48z"/>
<path d="M5680 329 c0 -5 5 -9 10 -9 6 0 10 -25 10 -56 0 -34 -4 -53 -10 -49
-5 3 -10 1 -10 -4 0 -6 16 -11 35 -11 19 0 35 5 35 10 0 6 -7 10 -15 10 -19 0
-20 59 -1 85 16 22 49 14 40 -10 -3 -8 -1 -15 5 -15 18 0 25 28 11 45 -13 15
-110 19 -110 4z"/>
<path d="M6152 320 c-43 -40 -15 -120 41 -120 26 0 65 35 53 48 -4 4 -13 -1
-20 -11 -17 -23 -53 -22 -66 2 -15 30 -14 31 40 31 42 0 50 3 50 18 0 24 -31
52 -56 52 -11 0 -30 -9 -42 -20z m76 -17 c2 -9 -8 -13 -32 -13 -34 0 -44 8
-29 24 11 11 56 2 61 -11z"/>
<path d="M6540 320 c-39 -39 -12 -120 40 -120 25 0 63 37 54 52 -5 8 -12 4
-22 -10 -33 -49 -89 -2 -64 54 14 30 59 32 54 2 -4 -22 16 -24 24 -3 16 41
-51 60 -86 25z"/>
<path d="M6650 330 c0 -5 5 -10 10 -10 18 0 12 -91 -7 -106 -16 -12 -13 -13
25 -14 23 0 42 5 42 10 0 6 -7 10 -15 10 -12 0 -15 13 -15 60 0 53 -2 60 -20
60 -11 0 -20 -4 -20 -10z"/>
<path d="M6740 329 c0 -5 5 -9 10 -9 6 0 10 -22 10 -50 0 -27 -4 -50 -10 -50
-5 0 -10 -4 -10 -10 0 -5 16 -10 35 -10 19 0 35 5 35 10 0 6 -7 10 -15 10 -10
0 -15 10 -15 33 0 41 20 70 46 65 15 -2 20 -13 22 -51 2 -28 -1 -47 -7 -47 -6
0 -11 -4 -11 -10 0 -5 17 -10 38 -10 33 1 35 2 20 14 -13 9 -18 27 -18 58 0
25 -6 50 -12 56 -16 12 -118 13 -118 1z"/>
<path d="M6930 320 c-41 -41 -12 -120 43 -120 26 0 65 35 53 47 -4 5 -12 0
-17 -10 -13 -23 -56 -22 -69 2 -15 30 -14 31 40 31 42 0 50 3 50 18 0 25 -31
52 -58 52 -12 0 -31 -9 -42 -20z m78 -17 c2 -9 -8 -13 -32 -13 -34 0 -44 8
-29 24 11 11 56 2 61 -11z"/>
<path d="M4470 270 c0 -5 14 -10 30 -10 17 0 30 5 30 10 0 6 -13 10 -30 10
-16 0 -30 -4 -30 -10z"/>
<path d="M1580 215 c0 -8 5 -15 10 -15 6 0 8 -12 5 -27 l-5 -28 14 30 c7 16
12 35 9 42 -7 18 -33 16 -33 -2z"/>
</g>
</svg>
